{"glyphs":{"0":{"ha":972,"x_min":139,"x_max":833,"o":"m 556 972 l 556 0 l 694 0 l 694 139 l 833 139 l 833 972 l 694 972 l 694 1111 l 417 1111 l 417 972 l 556 972 m 278 0 l 278 -139 l 556 -139 l 556 0 l 417 0 l 417 972 l 278 972 l 278 833 l 139 833 l 139 0 l 278 0 z "},"1":{"ha":972,"x_min":139,"x_max":833,"o":"m 417 972 l 417 1111 l 556 1111 l 556 972 l 694 972 l 694 139 l 833 139 l 833 0 l 694 0 l 694 -139 l 556 -139 l 556 0 l 417 0 l 417 833 l 278 833 l 278 972 l 417 972 m 139 833 l 278 833 l 278 694 l 139 694 l 139 833 z "},"2":{"ha":972,"x_min":139,"x_max":972,"o":"m 417 278 l 556 278 l 556 417 l 694 417 l 694 556 l 833 556 l 833 972 l 694 972 l 694 1111 l 417 1111 l 417 972 l 556 972 l 556 556 l 417 556 l 417 417 l 278 417 l 278 278 l 139 278 l 139 -139 l 278 -139 l 278 0 l 417 0 l 417 -139 l 694 -139 l 694 0 l 833 0 l 833 139 l 417 139 l 417 278 m 278 694 l 278 833 l 139 833 l 139 694 l 278 694 m 417 833 l 417 972 l 278 972 l 278 833 l 417 833 m 972 139 l 972 278 l 833 278 l 833 139 l 972 139 z "},"3":{"ha":972,"x_min":139,"x_max":833,"o":"m 556 556 l 556 0 l 694 0 l 694 139 l 833 139 l 833 556 l 694 556 l 694 694 l 833 694 l 833 972 l 694 972 l 694 1111 l 417 1111 l 417 972 l 556 972 l 556 694 l 417 694 l 417 556 l 556 556 m 278 0 l 278 -139 l 556 -139 l 556 0 l 417 0 l 417 278 l 278 278 l 278 139 l 139 139 l 139 0 l 278 0 m 278 694 l 278 833 l 139 833 l 139 694 l 278 694 m 417 417 l 417 556 l 278 556 l 278 417 l 417 417 m 417 833 l 417 972 l 278 972 l 278 833 l 417 833 z "},"4":{"ha":972,"x_min":0,"x_max":972,"o":"m 417 1111 l 278 1111 l 278 972 l 139 972 l 139 833 l 0 833 l 0 694 l 139 694 l 139 0 l 275 0 l 275 139 l 556 139 l 556 -139 l 694 -139 l 694 0 l 833 0 l 833 278 l 972 278 l 972 415 l 833 415 l 833 833 l 694 833 l 694 694 l 556 694 l 556 278 l 417 278 l 417 1111 m 556 -278 l 556 -139 l 417 -139 l 417 -278 l 556 -278 z "},"5":{"ha":972,"x_min":139,"x_max":833,"o":"m 556 556 l 556 0 l 694 0 l 694 139 l 833 139 l 833 556 l 694 556 l 694 694 l 419 694 l 419 833 l 694 833 l 694 972 l 833 972 l 833 1111 l 278 1111 l 278 972 l 139 972 l 139 417 l 278 417 l 278 556 l 556 556 m 278 0 l 278 -139 l 556 -139 l 556 0 l 417 0 l 417 278 l 278 278 l 278 139 l 139 139 l 139 0 l 278 0 z "},"6":{"ha":972,"x_min":139,"x_max":833,"o":"m 417 417 l 556 417 l 556 0 l 694 0 l 694 139 l 833 139 l 833 556 l 694 556 l 694 694 l 556 694 l 556 556 l 417 556 l 417 972 l 278 972 l 278 833 l 139 833 l 139 0 l 278 0 l 278 -139 l 556 -139 l 556 0 l 417 0 l 417 417 m 556 972 l 556 1111 l 417 1111 l 417 972 l 556 972 m 694 833 l 694 972 l 556 972 l 556 833 l 694 833 m 833 694 l 833 833 l 694 833 l 694 694 l 833 694 z "},"7":{"ha":972,"x_min":0,"x_max":972,"o":"m 556 -139 l 556 417 l 694 417 l 694 694 l 833 694 l 833 972 l 972 972 l 972 1111 l 278 1111 l 278 971 l 139 971 l 139 833 l 556 833 l 556 694 l 417 694 l 417 417 l 278 417 l 278 -139 l 556 -139 m 139 694 l 139 833 l 0 833 l 0 694 l 139 694 z "},"8":{"ha":972,"x_min":139,"x_max":833,"o":"m 417 417 l 556 417 l 556 0 l 694 0 l 694 139 l 833 139 l 833 417 l 694 417 l 694 556 l 833 556 l 833 972 l 694 972 l 694 1111 l 417 1111 l 417 972 l 556 972 l 556 556 l 417 556 l 417 972 l 278 972 l 278 833 l 139 833 l 139 556 l 278 556 l 278 417 l 139 417 l 139 0 l 278 0 l 278 -139 l 556 -139 l 556 0 l 417 0 l 417 417 z "},"9":{"ha":972,"x_min":139,"x_max":833,"o":"m 417 278 l 417 417 l 556 417 l 556 0 l 694 0 l 694 139 l 833 139 l 833 972 l 694 972 l 694 1111 l 417 1111 l 417 972 l 556 972 l 556 556 l 417 556 l 417 972 l 278 972 l 278 833 l 139 833 l 139 556 l 278 556 l 278 278 l 417 278 m 278 139 l 278 278 l 139 278 l 139 139 l 278 139 m 417 0 l 417 139 l 278 139 l 278 0 l 417 0 m 556 -139 l 556 0 l 417 0 l 417 -139 l 556 -139 z "},"\u0000":{"ha":0,"x_min":0,"x_max":0,"o":""},"\r":{"ha":694,"x_min":0,"x_max":0,"o":""}," ":{"ha":972,"x_min":0,"x_max":0,"o":""},"A":{"ha":972,"x_min":0,"x_max":972,"o":"m 278 1111 l 278 972 l 556 972 l 556 1111 l 278 1111 m 417 -139 l 417 0 l 139 0 l 139 139 l 0 139 l 0 -139 l 417 -139 m 278 139 l 278 278 l 556 278 l 556 0 l 694 0 l 694 -139 l 833 -139 l 833 0 l 972 0 l 972 139 l 833 139 l 833 1111 l 694 1111 l 694 972 l 556 972 l 556 833 l 417 833 l 417 694 l 556 694 l 556 417 l 417 417 l 417 694 l 278 694 l 278 417 l 139 417 l 139 139 l 278 139 m 278 833 l 278 972 l 139 972 l 139 833 l 278 833 m 556 -278 l 556 -139 l 417 -139 l 417 -278 l 556 -278 z "},"Á":{"ha":972,"x_min":0,"x_max":972,"o":"m 278 1111 l 278 972 l 556 972 l 556 1111 l 278 1111 m 417 -139 l 417 0 l 139 0 l 139 139 l 0 139 l 0 -139 l 417 -139 m 278 139 l 278 278 l 556 278 l 556 0 l 694 0 l 694 -139 l 833 -139 l 833 0 l 972 0 l 972 139 l 833 139 l 833 1111 l 694 1111 l 694 972 l 556 972 l 556 833 l 417 833 l 417 694 l 556 694 l 556 417 l 417 417 l 417 694 l 278 694 l 278 417 l 139 417 l 139 139 l 278 139 m 278 833 l 278 972 l 139 972 l 139 833 l 278 833 m 556 -278 l 556 -139 l 417 -139 l 417 -278 l 556 -278 z "},"Â":{"ha":972,"x_min":0,"x_max":972,"o":"m 278 1111 l 278 972 l 556 972 l 556 1111 l 278 1111 m 417 -139 l 417 0 l 139 0 l 139 139 l 0 139 l 0 -139 l 417 -139 m 278 139 l 278 278 l 556 278 l 556 0 l 694 0 l 694 -139 l 833 -139 l 833 0 l 972 0 l 972 139 l 833 139 l 833 1111 l 694 1111 l 694 972 l 556 972 l 556 833 l 417 833 l 417 694 l 556 694 l 556 417 l 417 417 l 417 694 l 278 694 l 278 417 l 139 417 l 139 139 l 278 139 m 278 833 l 278 972 l 139 972 l 139 833 l 278 833 m 556 -278 l 556 -139 l 417 -139 l 417 -278 l 556 -278 z "},"Ä":{"ha":972,"x_min":0,"x_max":972,"o":"m 278 1111 l 278 972 l 556 972 l 556 1111 l 278 1111 m 417 -139 l 417 0 l 139 0 l 139 139 l 0 139 l 0 -139 l 417 -139 m 278 139 l 278 278 l 556 278 l 556 0 l 694 0 l 694 -139 l 833 -139 l 833 0 l 972 0 l 972 139 l 833 139 l 833 1111 l 694 1111 l 694 972 l 556 972 l 556 833 l 417 833 l 417 694 l 556 694 l 556 417 l 417 417 l 417 694 l 278 694 l 278 417 l 139 417 l 139 139 l 278 139 m 278 833 l 278 972 l 139 972 l 139 833 l 278 833 m 556 -278 l 556 -139 l 417 -139 l 417 -278 l 556 -278 z "},"À":{"ha":972,"x_min":0,"x_max":972,"o":"m 278 1111 l 278 972 l 556 972 l 556 1111 l 278 1111 m 417 -139 l 417 0 l 139 0 l 139 139 l 0 139 l 0 -139 l 417 -139 m 278 139 l 278 278 l 556 278 l 556 0 l 694 0 l 694 -139 l 833 -139 l 833 0 l 972 0 l 972 139 l 833 139 l 833 1111 l 694 1111 l 694 972 l 556 972 l 556 833 l 417 833 l 417 694 l 556 694 l 556 417 l 417 417 l 417 694 l 278 694 l 278 417 l 139 417 l 139 139 l 278 139 m 278 833 l 278 972 l 139 972 l 139 833 l 278 833 m 556 -278 l 556 -139 l 417 -139 l 417 -278 l 556 -278 z "},"Å":{"ha":972,"x_min":0,"x_max":972,"o":"m 278 1111 l 278 972 l 556 972 l 556 1111 l 278 1111 m 417 -139 l 417 0 l 139 0 l 139 139 l 0 139 l 0 -139 l 417 -139 m 278 139 l 278 278 l 556 278 l 556 0 l 694 0 l 694 -139 l 833 -139 l 833 0 l 972 0 l 972 139 l 833 139 l 833 1111 l 694 1111 l 694 972 l 556 972 l 556 833 l 417 833 l 417 694 l 556 694 l 556 417 l 417 417 l 417 694 l 278 694 l 278 417 l 139 417 l 139 139 l 278 139 m 278 833 l 278 972 l 139 972 l 139 833 l 278 833 m 556 -278 l 556 -139 l 417 -139 l 417 -278 l 556 -278 z "},"Ã":{"ha":972,"x_min":0,"x_max":972,"o":"m 278 1111 l 278 972 l 556 972 l 556 1111 l 278 1111 m 417 -139 l 417 0 l 139 0 l 139 139 l 0 139 l 0 -139 l 417 -139 m 278 139 l 278 278 l 556 278 l 556 0 l 694 0 l 694 -139 l 833 -139 l 833 0 l 972 0 l 972 139 l 833 139 l 833 1111 l 694 1111 l 694 972 l 556 972 l 556 833 l 417 833 l 417 694 l 556 694 l 556 417 l 417 417 l 417 694 l 278 694 l 278 417 l 139 417 l 139 139 l 278 139 m 278 833 l 278 972 l 139 972 l 139 833 l 278 833 m 556 -278 l 556 -139 l 417 -139 l 417 -278 l 556 -278 z "},"Æ":{"ha":972,"x_min":0,"x_max":972,"o":"m 0 -139 l 0 417 l 139 417 l 139 694 l 278 694 l 278 417 l 417 417 l 417 694 l 278 694 l 278 833 l 417 833 l 417 972 l 556 972 l 556 1111 l 833 1111 l 833 972 l 694 972 l 694 694 l 833 694 l 833 556 l 694 556 l 694 0 l 833 0 l 833 -139 l 556 -139 l 556 0 l 417 0 l 417 278 l 139 278 l 139 0 l 278 0 l 278 -139 l 0 -139 m 0 972 l 139 972 l 139 833 l 0 833 l 0 972 m 139 1111 l 417 1111 l 417 972 l 139 972 l 139 1111 m 278 -139 l 417 -139 l 417 -278 l 278 -278 l 278 -139 m 833 139 l 972 139 l 972 0 l 833 0 l 833 139 m 833 972 l 972 972 l 972 833 l 833 833 l 833 972 z "},"B":{"ha":972,"x_min":0,"x_max":972,"o":"m 139 972 l 0 972 l 0 833 l 139 833 l 139 417 l 0 417 l 0 278 l 139 278 l 139 0 l 417 0 l 417 417 l 556 417 l 556 556 l 417 556 l 417 972 l 278 972 l 278 1111 l 139 1111 l 139 972 m 139 -139 l 139 0 l 0 0 l 0 -139 l 139 -139 m 694 -139 l 694 0 l 417 0 l 417 -139 l 694 -139 m 556 972 l 556 556 l 694 556 l 694 694 l 833 694 l 833 972 l 694 972 l 694 1111 l 417 1111 l 417 972 l 556 972 m 833 0 l 833 139 l 972 139 l 972 417 l 833 417 l 833 556 l 694 556 l 694 0 l 833 0 z "},"C":{"ha":972,"x_min":0,"x_max":972,"o":"m 417 833 l 417 139 l 556 139 l 556 278 l 694 278 l 694 972 l 833 972 l 833 1111 l 417 1111 l 417 972 l 278 972 l 278 833 l 417 833 m 139 139 l 139 0 l 278 0 l 278 -139 l 694 -139 l 694 0 l 417 0 l 417 139 l 278 139 l 278 833 l 139 833 l 139 694 l 0 694 l 0 139 l 139 139 m 833 0 l 833 139 l 694 139 l 694 0 l 833 0 m 972 139 l 972 278 l 833 278 l 833 139 l 972 139 m 972 833 l 972 972 l 833 972 l 833 833 l 972 833 z "},"Ç":{"ha":972,"x_min":0,"x_max":972,"o":"m 417 972 l 417 1111 l 833 1111 l 833 972 l 694 972 l 694 278 l 556 278 l 556 139 l 417 139 l 417 833 l 278 833 l 278 972 l 417 972 m 0 694 l 139 694 l 139 833 l 278 833 l 278 139 l 417 139 l 417 0 l 694 0 l 694 -139 l 556 -139 l 556 -278 l 417 -278 l 417 -139 l 278 -139 l 278 0 l 139 0 l 139 139 l 0 139 l 0 694 m 694 139 l 833 139 l 833 0 l 694 0 l 694 139 m 833 278 l 972 278 l 972 139 l 833 139 l 833 278 m 833 972 l 972 972 l 972 833 l 833 833 l 833 972 z "},"D":{"ha":972,"x_min":0,"x_max":972,"o":"m 139 278 l 139 0 l 417 0 l 417 972 l 278 972 l 278 1111 l 139 1111 l 139 972 l 0 972 l 0 833 l 139 833 l 139 417 l 0 417 l 0 278 l 139 278 m 139 -139 l 139 0 l 0 0 l 0 -139 l 139 -139 m 694 -139 l 694 0 l 417 0 l 417 -139 l 694 -139 m 694 972 l 694 1111 l 417 1111 l 417 972 l 694 972 m 833 0 l 833 139 l 972 139 l 972 833 l 833 833 l 833 972 l 694 972 l 694 0 l 833 0 z "},"E":{"ha":972,"x_min":0,"x_max":972,"o":"m 417 833 l 417 139 l 556 139 l 556 278 l 694 278 l 694 556 l 833 556 l 833 694 l 694 694 l 694 972 l 833 972 l 833 1111 l 417 1111 l 417 972 l 278 972 l 278 833 l 417 833 m 139 139 l 139 0 l 278 0 l 278 -139 l 694 -139 l 694 0 l 417 0 l 417 139 l 278 139 l 278 833 l 139 833 l 139 694 l 0 694 l 0 139 l 139 139 m 833 0 l 833 139 l 694 139 l 694 0 l 833 0 m 972 139 l 972 278 l 833 278 l 833 139 l 972 139 m 972 833 l 972 972 l 833 972 l 833 833 l 972 833 z "},"É":{"ha":972,"x_min":0,"x_max":972,"o":"m 417 833 l 417 139 l 556 139 l 556 278 l 694 278 l 694 556 l 833 556 l 833 694 l 694 694 l 694 972 l 833 972 l 833 1111 l 417 1111 l 417 972 l 278 972 l 278 833 l 417 833 m 139 139 l 139 0 l 278 0 l 278 -139 l 694 -139 l 694 0 l 417 0 l 417 139 l 278 139 l 278 833 l 139 833 l 139 694 l 0 694 l 0 139 l 139 139 m 833 0 l 833 139 l 694 139 l 694 0 l 833 0 m 972 139 l 972 278 l 833 278 l 833 139 l 972 139 m 972 833 l 972 972 l 833 972 l 833 833 l 972 833 z "},"Ê":{"ha":972,"x_min":0,"x_max":972,"o":"m 417 833 l 417 139 l 556 139 l 556 278 l 694 278 l 694 556 l 833 556 l 833 694 l 694 694 l 694 972 l 833 972 l 833 1111 l 417 1111 l 417 972 l 278 972 l 278 833 l 417 833 m 139 139 l 139 0 l 278 0 l 278 -139 l 694 -139 l 694 0 l 417 0 l 417 139 l 278 139 l 278 833 l 139 833 l 139 694 l 0 694 l 0 139 l 139 139 m 833 0 l 833 139 l 694 139 l 694 0 l 833 0 m 972 139 l 972 278 l 833 278 l 833 139 l 972 139 m 972 833 l 972 972 l 833 972 l 833 833 l 972 833 z "},"Ë":{"ha":972,"x_min":0,"x_max":972,"o":"m 417 833 l 417 139 l 556 139 l 556 278 l 694 278 l 694 556 l 833 556 l 833 694 l 694 694 l 694 972 l 833 972 l 833 1111 l 417 1111 l 417 972 l 278 972 l 278 833 l 417 833 m 139 139 l 139 0 l 278 0 l 278 -139 l 694 -139 l 694 0 l 417 0 l 417 139 l 278 139 l 278 833 l 139 833 l 139 694 l 0 694 l 0 139 l 139 139 m 833 0 l 833 139 l 694 139 l 694 0 l 833 0 m 972 139 l 972 278 l 833 278 l 833 139 l 972 139 m 972 833 l 972 972 l 833 972 l 833 833 l 972 833 z "},"È":{"ha":972,"x_min":0,"x_max":972,"o":"m 417 833 l 417 139 l 556 139 l 556 278 l 694 278 l 694 556 l 833 556 l 833 694 l 694 694 l 694 972 l 833 972 l 833 1111 l 417 1111 l 417 972 l 278 972 l 278 833 l 417 833 m 139 139 l 139 0 l 278 0 l 278 -139 l 694 -139 l 694 0 l 417 0 l 417 139 l 278 139 l 278 833 l 139 833 l 139 694 l 0 694 l 0 139 l 139 139 m 833 0 l 833 139 l 694 139 l 694 0 l 833 0 m 972 139 l 972 278 l 833 278 l 833 139 l 972 139 m 972 833 l 972 972 l 833 972 l 833 833 l 972 833 z "},"F":{"ha":972,"x_min":0,"x_max":972,"o":"m 556 972 l 556 0 l 694 0 l 694 417 l 833 417 l 833 556 l 694 556 l 694 833 l 833 833 l 833 972 l 694 972 l 694 1111 l 417 1111 l 417 972 l 556 972 m 139 -139 l 139 0 l 0 0 l 0 -139 l 139 -139 m 139 417 l 139 0 l 278 0 l 278 139 l 417 139 l 417 972 l 278 972 l 278 833 l 139 833 l 139 556 l 0 556 l 0 417 l 139 417 m 417 -278 l 417 -139 l 139 -139 l 139 -278 l 417 -278 m 556 -139 l 556 0 l 417 0 l 417 -139 l 556 -139 m 972 972 l 972 1111 l 833 1111 l 833 972 l 972 972 z "},"G":{"ha":972,"x_min":0,"x_max":972,"o":"m 694 556 l 694 0 l 833 0 l 833 139 l 972 139 l 972 556 l 833 556 l 833 694 l 556 694 l 556 972 l 694 972 l 694 1111 l 417 1111 l 417 972 l 278 972 l 278 833 l 417 833 l 417 139 l 556 139 l 556 556 l 694 556 m 139 139 l 139 0 l 278 0 l 278 -139 l 694 -139 l 694 0 l 417 0 l 417 139 l 278 139 l 278 833 l 139 833 l 139 694 l 0 694 l 0 139 l 139 139 m 833 833 l 833 972 l 694 972 l 694 833 l 833 833 z "},"H":{"ha":972,"x_min":0,"x_max":972,"o":"m 417 556 l 417 139 l 556 139 l 556 694 l 694 694 l 694 -139 l 833 -139 l 833 0 l 972 0 l 972 694 l 833 694 l 833 833 l 556 833 l 556 972 l 694 972 l 694 1111 l 278 1111 l 278 972 l 417 972 l 417 694 l 278 694 l 278 972 l 139 972 l 139 833 l 0 833 l 0 0 l 139 0 l 139 -139 l 278 -139 l 278 0 l 417 0 l 417 139 l 278 139 l 278 556 l 417 556 m 694 -278 l 694 -139 l 556 -139 l 556 -278 l 694 -278 z "},"I":{"ha":972,"x_min":278,"x_max":972,"o":"m 694 1111 l 417 1111 l 417 972 l 694 972 l 694 1111 m 417 0 l 417 139 l 278 139 l 278 0 l 417 0 m 417 833 l 417 972 l 278 972 l 278 833 l 417 833 m 556 -139 l 556 0 l 417 0 l 417 -139 l 556 -139 m 556 417 l 556 0 l 694 0 l 694 139 l 833 139 l 833 972 l 694 972 l 694 833 l 556 833 l 556 556 l 417 556 l 417 417 l 556 417 m 972 972 l 972 1111 l 833 1111 l 833 972 l 972 972 z "},"Í":{"ha":972,"x_min":278,"x_max":972,"o":"m 694 1111 l 417 1111 l 417 972 l 694 972 l 694 1111 m 417 0 l 417 139 l 278 139 l 278 0 l 417 0 m 417 833 l 417 972 l 278 972 l 278 833 l 417 833 m 556 -139 l 556 0 l 417 0 l 417 -139 l 556 -139 m 556 417 l 556 0 l 694 0 l 694 139 l 833 139 l 833 972 l 694 972 l 694 833 l 556 833 l 556 556 l 417 556 l 417 417 l 556 417 m 972 972 l 972 1111 l 833 1111 l 833 972 l 972 972 z "},"Î":{"ha":972,"x_min":278,"x_max":972,"o":"m 694 1111 l 417 1111 l 417 972 l 694 972 l 694 1111 m 417 0 l 417 139 l 278 139 l 278 0 l 417 0 m 417 833 l 417 972 l 278 972 l 278 833 l 417 833 m 556 -139 l 556 0 l 417 0 l 417 -139 l 556 -139 m 556 417 l 556 0 l 694 0 l 694 139 l 833 139 l 833 972 l 694 972 l 694 833 l 556 833 l 556 556 l 417 556 l 417 417 l 556 417 m 972 972 l 972 1111 l 833 1111 l 833 972 l 972 972 z "},"Ï":{"ha":972,"x_min":278,"x_max":972,"o":"m 694 1111 l 417 1111 l 417 972 l 694 972 l 694 1111 m 417 0 l 417 139 l 278 139 l 278 0 l 417 0 m 417 833 l 417 972 l 278 972 l 278 833 l 417 833 m 556 -139 l 556 0 l 417 0 l 417 -139 l 556 -139 m 556 417 l 556 0 l 694 0 l 694 139 l 833 139 l 833 972 l 694 972 l 694 833 l 556 833 l 556 556 l 417 556 l 417 417 l 556 417 m 972 972 l 972 1111 l 833 1111 l 833 972 l 972 972 z "},"Ì":{"ha":972,"x_min":278,"x_max":972,"o":"m 694 1111 l 417 1111 l 417 972 l 694 972 l 694 1111 m 417 0 l 417 139 l 278 139 l 278 0 l 417 0 m 417 833 l 417 972 l 278 972 l 278 833 l 417 833 m 556 -139 l 556 0 l 417 0 l 417 -139 l 556 -139 m 556 417 l 556 0 l 694 0 l 694 139 l 833 139 l 833 972 l 694 972 l 694 833 l 556 833 l 556 556 l 417 556 l 417 417 l 556 417 m 972 972 l 972 1111 l 833 1111 l 833 972 l 972 972 z "},"J":{"ha":972,"x_min":0,"x_max":972,"o":"m 556 417 l 556 0 l 694 0 l 694 139 l 833 139 l 833 972 l 694 972 l 694 833 l 556 833 l 556 556 l 417 556 l 417 417 l 556 417 m 139 -139 l 139 -278 l 417 -278 l 417 -139 l 556 -139 l 556 0 l 278 0 l 278 139 l 139 139 l 139 0 l 0 0 l 0 -139 l 139 -139 m 139 694 l 139 556 l 278 556 l 278 694 l 417 694 l 417 833 l 278 833 l 278 972 l 694 972 l 694 1111 l 139 1111 l 139 972 l 0 972 l 0 694 l 139 694 m 972 972 l 972 1111 l 833 1111 l 833 972 l 972 972 z "},"K":{"ha":972,"x_min":0,"x_max":972,"o":"m 833 972 l 833 1111 l 694 1111 l 694 972 l 833 972 m 139 0 l 139 -139 l 278 -139 l 278 0 l 417 0 l 417 139 l 278 139 l 278 556 l 417 556 l 417 694 l 278 694 l 278 972 l 139 972 l 139 833 l 0 833 l 0 0 l 139 0 m 556 972 l 556 1111 l 278 1111 l 278 972 l 556 972 m 556 278 l 556 0 l 694 0 l 694 -139 l 833 -139 l 833 0 l 972 0 l 972 139 l 833 139 l 833 417 l 694 417 l 694 556 l 833 556 l 833 833 l 694 833 l 694 972 l 556 972 l 556 833 l 417 833 l 417 694 l 556 694 l 556 417 l 417 417 l 417 278 l 556 278 z "},"L":{"ha":972,"x_min":0,"x_max":972,"o":"m 833 972 l 694 972 l 694 1111 l 417 1111 l 417 972 l 556 972 l 556 139 l 417 139 l 417 972 l 278 972 l 278 833 l 139 833 l 139 556 l 0 556 l 0 417 l 139 417 l 139 0 l 417 0 l 417 -139 l 833 -139 l 833 0 l 694 0 l 694 833 l 833 833 l 833 972 m 139 -139 l 139 0 l 0 0 l 0 -139 l 139 -139 m 972 0 l 972 139 l 833 139 l 833 0 l 972 0 m 972 972 l 972 1111 l 833 1111 l 833 972 l 972 972 z "},"M":{"ha":972,"x_min":0,"x_max":972,"o":"m 972 0 l 972 833 l 833 833 l 833 972 l 694 972 l 694 -139 l 833 -139 l 833 0 l 972 0 m 139 -139 l 139 0 l 278 0 l 278 -139 l 417 -139 l 417 0 l 556 0 l 556 972 l 694 972 l 694 1111 l 417 1111 l 417 972 l 278 972 l 278 694 l 139 694 l 139 972 l 0 972 l 0 -139 l 139 -139 m 139 556 l 278 556 l 278 139 l 139 139 l 139 556 m 278 972 l 278 1111 l 139 1111 l 139 972 l 278 972 z "},"N":{"ha":972,"x_min":0,"x_max":972,"o":"m 417 -139 l 417 972 l 278 972 l 278 1111 l 139 1111 l 139 972 l 0 972 l 0 833 l 139 833 l 139 417 l 0 417 l 0 278 l 139 278 l 139 0 l 278 0 l 278 -139 l 417 -139 m 556 972 l 556 0 l 694 0 l 694 -139 l 833 -139 l 833 0 l 972 0 l 972 139 l 833 139 l 833 972 l 694 972 l 694 1111 l 417 1111 l 417 972 l 556 972 z "},"Ñ":{"ha":972,"x_min":0,"x_max":972,"o":"m 417 -139 l 417 972 l 278 972 l 278 1111 l 139 1111 l 139 972 l 0 972 l 0 833 l 139 833 l 139 417 l 0 417 l 0 278 l 139 278 l 139 0 l 278 0 l 278 -139 l 417 -139 m 556 972 l 556 0 l 694 0 l 694 -139 l 833 -139 l 833 0 l 972 0 l 972 139 l 833 139 l 833 972 l 694 972 l 694 1111 l 417 1111 l 417 972 l 556 972 z "},"O":{"ha":972,"x_min":0,"x_max":972,"o":"m 694 1111 l 694 972 l 417 972 l 417 833 l 278 833 l 278 0 l 139 0 l 139 139 l 0 139 l 0 833 l 139 833 l 139 972 l 278 972 l 278 1111 l 694 1111 m 278 0 l 556 0 l 556 139 l 694 139 l 694 972 l 833 972 l 833 833 l 972 833 l 972 139 l 833 139 l 833 0 l 694 0 l 694 -139 l 278 -139 l 278 0 m 417 833 l 556 833 l 556 139 l 417 139 l 417 833 z "},"Ó":{"ha":972,"x_min":0,"x_max":972,"o":"m 694 1111 l 694 972 l 417 972 l 417 833 l 278 833 l 278 0 l 139 0 l 139 139 l 0 139 l 0 833 l 139 833 l 139 972 l 278 972 l 278 1111 l 694 1111 m 278 0 l 556 0 l 556 139 l 694 139 l 694 972 l 833 972 l 833 833 l 972 833 l 972 139 l 833 139 l 833 0 l 694 0 l 694 -139 l 278 -139 l 278 0 m 417 833 l 556 833 l 556 139 l 417 139 l 417 833 z "},"Ô":{"ha":972,"x_min":0,"x_max":972,"o":"m 694 1111 l 694 972 l 417 972 l 417 833 l 278 833 l 278 0 l 139 0 l 139 139 l 0 139 l 0 833 l 139 833 l 139 972 l 278 972 l 278 1111 l 694 1111 m 278 0 l 556 0 l 556 139 l 694 139 l 694 972 l 833 972 l 833 833 l 972 833 l 972 139 l 833 139 l 833 0 l 694 0 l 694 -139 l 278 -139 l 278 0 m 417 833 l 556 833 l 556 139 l 417 139 l 417 833 z "},"Ö":{"ha":972,"x_min":0,"x_max":972,"o":"m 694 1111 l 694 972 l 417 972 l 417 833 l 278 833 l 278 0 l 139 0 l 139 139 l 0 139 l 0 833 l 139 833 l 139 972 l 278 972 l 278 1111 l 694 1111 m 278 0 l 556 0 l 556 139 l 694 139 l 694 972 l 833 972 l 833 833 l 972 833 l 972 139 l 833 139 l 833 0 l 694 0 l 694 -139 l 278 -139 l 278 0 m 417 833 l 556 833 l 556 139 l 417 139 l 417 833 z "},"Ò":{"ha":972,"x_min":0,"x_max":972,"o":"m 694 1111 l 694 972 l 417 972 l 417 833 l 278 833 l 278 0 l 139 0 l 139 139 l 0 139 l 0 833 l 139 833 l 139 972 l 278 972 l 278 1111 l 694 1111 m 278 0 l 556 0 l 556 139 l 694 139 l 694 972 l 833 972 l 833 833 l 972 833 l 972 139 l 833 139 l 833 0 l 694 0 l 694 -139 l 278 -139 l 278 0 m 417 833 l 556 833 l 556 139 l 417 139 l 417 833 z "},"Ø":{"ha":972,"x_min":0,"x_max":972,"o":"m 694 1111 l 694 972 l 833 972 l 833 833 l 972 833 l 972 139 l 833 139 l 833 0 l 694 0 l 694 -139 l 278 -139 l 278 0 l 139 0 l 139 139 l 0 139 l 0 833 l 139 833 l 139 972 l 278 972 l 278 1111 l 694 1111 m 0 0 l 139 0 l 139 -139 l 0 -139 l 0 0 m 417 278 l 417 0 l 556 0 l 556 139 l 694 139 l 694 694 l 556 694 l 556 972 l 417 972 l 417 833 l 278 833 l 278 278 l 417 278 m 417 694 l 556 694 l 556 278 l 417 278 l 417 694 m 833 1111 l 972 1111 l 972 972 l 833 972 l 833 1111 z "},"Õ":{"ha":972,"x_min":0,"x_max":972,"o":"m 694 1111 l 694 972 l 417 972 l 417 833 l 278 833 l 278 0 l 139 0 l 139 139 l 0 139 l 0 833 l 139 833 l 139 972 l 278 972 l 278 1111 l 694 1111 m 278 0 l 556 0 l 556 139 l 694 139 l 694 972 l 833 972 l 833 833 l 972 833 l 972 139 l 833 139 l 833 0 l 694 0 l 694 -139 l 278 -139 l 278 0 m 417 833 l 556 833 l 556 139 l 417 139 l 417 833 z "},"Œ":{"ha":972,"x_min":0,"x_max":972,"o":"m 556 417 l 556 139 l 417 139 l 417 833 l 278 833 l 278 139 l 417 139 l 417 0 l 694 0 l 694 -139 l 278 -139 l 278 0 l 139 0 l 139 139 l 0 139 l 0 833 l 139 833 l 139 972 l 278 972 l 278 1111 l 833 1111 l 833 972 l 972 972 l 972 694 l 833 694 l 833 556 l 694 556 l 694 972 l 556 972 l 556 556 l 694 556 l 694 417 l 556 417 m 694 139 l 833 139 l 833 0 l 694 0 l 694 139 m 833 278 l 972 278 l 972 139 l 833 139 l 833 278 z "},"P":{"ha":972,"x_min":0,"x_max":972,"o":"m 556 972 l 556 833 l 694 833 l 694 139 l 833 139 l 833 278 l 972 278 l 972 972 l 833 972 l 833 1111 l 417 1111 l 417 972 l 556 972 m 139 0 l 139 -278 l 278 -278 l 278 -139 l 417 -139 l 417 0 l 694 0 l 694 139 l 417 139 l 417 972 l 278 972 l 278 1111 l 139 1111 l 139 972 l 0 972 l 0 833 l 139 833 l 139 556 l 0 556 l 0 417 l 139 417 l 139 139 l 0 139 l 0 0 l 139 0 z "},"Q":{"ha":972,"x_min":0,"x_max":972,"o":"m 972 -278 l 972 -139 l 833 -139 l 833 -278 l 972 -278 m 139 139 l 139 0 l 278 0 l 278 833 l 417 833 l 417 972 l 694 972 l 694 1111 l 278 1111 l 278 972 l 139 972 l 139 833 l 0 833 l 0 139 l 139 139 m 833 -139 l 833 139 l 972 139 l 972 833 l 833 833 l 833 972 l 694 972 l 694 139 l 556 139 l 556 0 l 278 0 l 278 -139 l 833 -139 m 556 139 l 556 833 l 417 833 l 417 139 l 556 139 z "},"R":{"ha":972,"x_min":0,"x_max":972,"o":"m 833 556 l 833 972 l 694 972 l 694 1111 l 417 1111 l 417 972 l 556 972 l 556 556 l 417 556 l 417 972 l 278 972 l 278 1111 l 139 1111 l 139 972 l 0 972 l 0 833 l 139 833 l 139 417 l 0 417 l 0 278 l 139 278 l 139 -139 l 278 -139 l 278 0 l 417 0 l 417 417 l 556 417 l 556 0 l 694 0 l 694 -139 l 833 -139 l 833 0 l 972 0 l 972 139 l 833 139 l 833 417 l 694 417 l 694 556 l 833 556 z "},"S":{"ha":972,"x_min":0,"x_max":972,"o":"m 556 417 l 556 278 l 694 278 l 694 0 l 833 0 l 833 139 l 972 139 l 972 417 l 833 417 l 833 556 l 694 556 l 694 694 l 833 694 l 833 972 l 694 972 l 694 1111 l 278 1111 l 278 972 l 139 972 l 139 556 l 278 556 l 278 417 l 556 417 m 139 -139 l 139 0 l 0 0 l 0 -139 l 139 -139 m 278 278 l 278 417 l 0 417 l 0 278 l 278 278 m 417 0 l 417 139 l 139 139 l 139 0 l 417 0 m 694 -139 l 694 0 l 417 0 l 417 -139 l 694 -139 m 417 972 l 556 972 l 556 556 l 417 556 l 417 972 m 972 972 l 972 1111 l 833 1111 l 833 972 l 972 972 z "},"T":{"ha":972,"x_min":0,"x_max":972,"o":"m 139 833 l 417 833 l 417 139 l 556 139 l 556 278 l 694 278 l 694 833 l 833 833 l 833 972 l 556 972 l 556 1111 l 278 1111 l 278 972 l 139 972 l 139 833 m 139 139 l 139 0 l 278 0 l 278 -139 l 694 -139 l 694 0 l 417 0 l 417 139 l 278 139 l 278 694 l 139 694 l 139 556 l 0 556 l 0 139 l 139 139 m 139 694 l 139 833 l 0 833 l 0 694 l 139 694 m 833 0 l 833 139 l 694 139 l 694 0 l 833 0 m 972 139 l 972 278 l 833 278 l 833 139 l 972 139 m 972 972 l 972 1111 l 833 1111 l 833 972 l 972 972 z "},"U":{"ha":972,"x_min":0,"x_max":972,"o":"m 694 1111 l 556 1111 l 556 139 l 417 139 l 417 972 l 278 972 l 278 1111 l 139 1111 l 139 972 l 0 972 l 0 833 l 139 833 l 139 417 l 0 417 l 0 278 l 139 278 l 139 0 l 278 0 l 278 -139 l 417 -139 l 417 0 l 694 0 l 694 -139 l 833 -139 l 833 0 l 972 0 l 972 139 l 833 139 l 833 972 l 694 972 l 694 1111 z "},"Ú":{"ha":972,"x_min":0,"x_max":972,"o":"m 694 1111 l 556 1111 l 556 139 l 417 139 l 417 972 l 278 972 l 278 1111 l 139 1111 l 139 972 l 0 972 l 0 833 l 139 833 l 139 417 l 0 417 l 0 278 l 139 278 l 139 0 l 278 0 l 278 -139 l 417 -139 l 417 0 l 694 0 l 694 -139 l 833 -139 l 833 0 l 972 0 l 972 139 l 833 139 l 833 972 l 694 972 l 694 1111 z "},"Û":{"ha":972,"x_min":0,"x_max":972,"o":"m 694 1111 l 556 1111 l 556 139 l 417 139 l 417 972 l 278 972 l 278 1111 l 139 1111 l 139 972 l 0 972 l 0 833 l 139 833 l 139 417 l 0 417 l 0 278 l 139 278 l 139 0 l 278 0 l 278 -139 l 417 -139 l 417 0 l 694 0 l 694 -139 l 833 -139 l 833 0 l 972 0 l 972 139 l 833 139 l 833 972 l 694 972 l 694 1111 z "},"Ü":{"ha":972,"x_min":0,"x_max":972,"o":"m 694 1111 l 556 1111 l 556 139 l 417 139 l 417 972 l 278 972 l 278 1111 l 139 1111 l 139 972 l 0 972 l 0 833 l 139 833 l 139 417 l 0 417 l 0 278 l 139 278 l 139 0 l 278 0 l 278 -139 l 417 -139 l 417 0 l 694 0 l 694 -139 l 833 -139 l 833 0 l 972 0 l 972 139 l 833 139 l 833 972 l 694 972 l 694 1111 z "},"Ù":{"ha":972,"x_min":0,"x_max":972,"o":"m 694 1111 l 556 1111 l 556 139 l 417 139 l 417 972 l 278 972 l 278 1111 l 139 1111 l 139 972 l 0 972 l 0 833 l 139 833 l 139 417 l 0 417 l 0 278 l 139 278 l 139 0 l 278 0 l 278 -139 l 417 -139 l 417 0 l 694 0 l 694 -139 l 833 -139 l 833 0 l 972 0 l 972 139 l 833 139 l 833 972 l 694 972 l 694 1111 z "},"V":{"ha":972,"x_min":0,"x_max":833,"o":"m 556 -139 l 556 0 l 417 0 l 417 972 l 278 972 l 278 1111 l 139 1111 l 139 972 l 0 972 l 0 833 l 139 833 l 139 417 l 0 417 l 0 278 l 139 278 l 139 0 l 278 0 l 278 -139 l 556 -139 m 694 0 l 694 139 l 833 139 l 833 972 l 694 972 l 694 1111 l 556 1111 l 556 0 l 694 0 z "},"W":{"ha":972,"x_min":0,"x_max":972,"o":"m 278 -139 l 278 0 l 139 0 l 139 -139 l 278 -139 m 139 0 l 139 278 l 278 278 l 278 0 l 417 0 l 417 -139 l 694 -139 l 694 0 l 556 0 l 556 972 l 417 972 l 417 1111 l 278 1111 l 278 972 l 139 972 l 139 1111 l 0 1111 l 0 0 l 139 0 m 139 833 l 278 833 l 278 417 l 139 417 l 139 833 m 833 0 l 833 139 l 972 139 l 972 972 l 833 972 l 833 1111 l 694 1111 l 694 0 l 833 0 z "},"X":{"ha":972,"x_min":139,"x_max":972,"o":"m 417 417 l 417 0 l 556 0 l 556 -139 l 694 -139 l 694 0 l 833 0 l 833 139 l 694 139 l 694 417 l 833 417 l 833 556 l 694 556 l 694 972 l 556 972 l 556 1111 l 417 1111 l 417 972 l 278 972 l 278 833 l 417 833 l 417 556 l 278 556 l 278 417 l 417 417 m 417 -139 l 417 0 l 278 0 l 278 139 l 139 139 l 139 -139 l 417 -139 m 278 694 l 278 833 l 139 833 l 139 694 l 278 694 m 833 972 l 833 833 l 972 833 l 972 1111 l 694 1111 l 694 972 l 833 972 m 972 139 l 972 278 l 833 278 l 833 139 l 972 139 z "},"Y":{"ha":972,"x_min":0,"x_max":972,"o":"m 0 -139 l 0 0 l 139 0 l 139 278 l 0 278 l 0 417 l 139 417 l 139 833 l 0 833 l 0 972 l 139 972 l 139 1111 l 278 1111 l 278 972 l 417 972 l 417 139 l 556 139 l 556 0 l 278 0 l 278 -139 l 556 -139 l 556 -278 l 139 -278 l 139 -139 l 0 -139 m 556 0 l 833 0 l 833 -139 l 556 -139 l 556 0 m 556 1111 l 694 1111 l 694 972 l 833 972 l 833 278 l 694 278 l 694 139 l 556 139 l 556 1111 m 833 -139 l 972 -139 l 972 -278 l 833 -278 l 833 -139 z "},"Ý":{"ha":972,"x_min":0,"x_max":972,"o":"m 0 -139 l 0 0 l 139 0 l 139 278 l 0 278 l 0 417 l 139 417 l 139 833 l 0 833 l 0 972 l 139 972 l 139 1111 l 278 1111 l 278 972 l 417 972 l 417 139 l 556 139 l 556 0 l 278 0 l 278 -139 l 556 -139 l 556 -278 l 139 -278 l 139 -139 l 0 -139 m 556 0 l 833 0 l 833 -139 l 556 -139 l 556 0 m 556 1111 l 694 1111 l 694 972 l 833 972 l 833 278 l 694 278 l 694 139 l 556 139 l 556 1111 m 833 -139 l 972 -139 l 972 -278 l 833 -278 l 833 -139 z "},"Ÿ":{"ha":972,"x_min":0,"x_max":972,"o":"m 0 -139 l 0 0 l 139 0 l 139 278 l 0 278 l 0 417 l 139 417 l 139 833 l 0 833 l 0 972 l 139 972 l 139 1111 l 278 1111 l 278 972 l 417 972 l 417 139 l 556 139 l 556 0 l 278 0 l 278 -139 l 556 -139 l 556 -278 l 139 -278 l 139 -139 l 0 -139 m 556 0 l 833 0 l 833 -139 l 556 -139 l 556 0 m 556 1111 l 694 1111 l 694 972 l 833 972 l 833 278 l 694 278 l 694 139 l 556 139 l 556 1111 m 833 -139 l 972 -139 l 972 -278 l 833 -278 l 833 -139 z "},"Ỳ":{"ha":972,"x_min":0,"x_max":972,"o":"m 0 -139 l 0 0 l 139 0 l 139 278 l 0 278 l 0 417 l 139 417 l 139 833 l 0 833 l 0 972 l 139 972 l 139 1111 l 278 1111 l 278 972 l 417 972 l 417 139 l 556 139 l 556 0 l 278 0 l 278 -139 l 556 -139 l 556 -278 l 139 -278 l 139 -139 l 0 -139 m 556 0 l 833 0 l 833 -139 l 556 -139 l 556 0 m 556 1111 l 694 1111 l 694 972 l 833 972 l 833 278 l 694 278 l 694 139 l 556 139 l 556 1111 m 833 -139 l 972 -139 l 972 -278 l 833 -278 l 833 -139 z "},"Z":{"ha":972,"x_min":0,"x_max":972,"o":"m 278 972 l 139 972 l 139 833 l 694 833 l 694 694 l 833 694 l 833 972 l 972 972 l 972 1111 l 278 1111 l 278 972 m 139 -139 l 139 0 l 0 0 l 0 -139 l 139 -139 m 139 694 l 139 833 l 0 833 l 0 694 l 139 694 m 278 0 l 278 -139 l 694 -139 l 694 0 l 833 0 l 833 139 l 417 139 l 417 278 l 278 278 l 278 139 l 139 139 l 139 0 l 278 0 m 278 556 l 278 694 l 139 694 l 139 556 l 278 556 m 417 417 l 417 278 l 556 278 l 556 417 l 833 417 l 833 556 l 694 556 l 694 694 l 556 694 l 556 556 l 278 556 l 278 417 l 417 417 m 972 139 l 972 278 l 833 278 l 833 139 l 972 139 z "},"a":{"ha":972,"x_min":139,"x_max":972,"o":"m 694 0 l 694 -139 l 833 -139 l 833 0 l 972 0 l 972 139 l 833 139 l 833 694 l 694 694 l 694 833 l 417 833 l 417 694 l 556 694 l 556 0 l 694 0 m 278 0 l 278 -139 l 556 -139 l 556 0 l 417 0 l 417 417 l 278 417 l 278 278 l 139 278 l 139 0 l 278 0 m 278 417 l 278 556 l 139 556 l 139 417 l 278 417 m 417 556 l 417 694 l 278 694 l 278 556 l 417 556 z "},"á":{"ha":972,"x_min":139,"x_max":972,"o":"m 556 694 l 556 0 l 694 0 l 694 -139 l 833 -139 l 833 0 l 972 0 l 972 139 l 833 139 l 833 694 l 694 694 l 694 833 l 556 833 l 556 972 l 417 972 l 417 694 l 556 694 m 278 0 l 278 -139 l 556 -139 l 556 0 l 417 0 l 417 417 l 278 417 l 278 278 l 139 278 l 139 0 l 278 0 m 278 417 l 278 556 l 139 556 l 139 417 l 278 417 m 417 556 l 417 694 l 278 694 l 278 556 l 417 556 m 694 972 l 694 1111 l 556 1111 l 556 972 l 694 972 z "},"â":{"ha":972,"x_min":139,"x_max":972,"o":"m 694 972 l 694 1111 l 417 1111 l 417 972 l 694 972 m 278 0 l 278 -139 l 556 -139 l 556 0 l 417 0 l 417 417 l 278 417 l 278 278 l 139 278 l 139 0 l 278 0 m 278 417 l 278 556 l 139 556 l 139 417 l 278 417 m 417 556 l 417 694 l 278 694 l 278 556 l 417 556 m 417 833 l 417 972 l 278 972 l 278 833 l 417 833 m 556 694 l 556 0 l 694 0 l 694 -139 l 833 -139 l 833 0 l 972 0 l 972 139 l 833 139 l 833 694 l 694 694 l 694 833 l 417 833 l 417 694 l 556 694 m 833 833 l 833 972 l 694 972 l 694 833 l 833 833 z "},"ä":{"ha":972,"x_min":139,"x_max":972,"o":"m 694 972 l 694 1111 l 556 1111 l 556 972 l 694 972 m 278 0 l 278 -139 l 556 -139 l 556 0 l 417 0 l 417 417 l 278 417 l 278 278 l 139 278 l 139 0 l 278 0 m 278 417 l 278 556 l 139 556 l 139 417 l 278 417 m 417 556 l 417 694 l 278 694 l 278 556 l 417 556 m 417 972 l 417 1111 l 278 1111 l 278 972 l 417 972 m 556 694 l 556 0 l 694 0 l 694 -139 l 833 -139 l 833 0 l 972 0 l 972 139 l 833 139 l 833 694 l 694 694 l 694 833 l 417 833 l 417 694 l 556 694 z "},"à":{"ha":972,"x_min":139,"x_max":972,"o":"m 694 0 l 694 -139 l 833 -139 l 833 0 l 972 0 l 972 139 l 833 139 l 833 694 l 694 694 l 694 972 l 556 972 l 556 833 l 417 833 l 417 694 l 556 694 l 556 0 l 694 0 m 278 0 l 278 -139 l 556 -139 l 556 0 l 417 0 l 417 417 l 278 417 l 278 278 l 139 278 l 139 0 l 278 0 m 278 417 l 278 556 l 139 556 l 139 417 l 278 417 m 417 556 l 417 694 l 278 694 l 278 556 l 417 556 m 556 972 l 556 1111 l 417 1111 l 417 972 l 556 972 z "},"å":{"ha":972,"x_min":139,"x_max":972,"o":"m 694 1111 l 694 972 l 556 972 l 556 1111 l 694 1111 m 278 0 l 278 -139 l 556 -139 l 556 0 l 694 0 l 694 -139 l 833 -139 l 833 0 l 972 0 l 972 139 l 833 139 l 833 694 l 694 694 l 694 833 l 417 833 l 417 694 l 278 694 l 278 556 l 139 556 l 139 417 l 278 417 l 278 278 l 139 278 l 139 0 l 278 0 m 278 556 l 417 556 l 417 694 l 556 694 l 556 0 l 417 0 l 417 417 l 278 417 l 278 556 z "},"ã":{"ha":972,"x_min":139,"x_max":972,"o":"m 694 0 l 694 -139 l 833 -139 l 833 0 l 972 0 l 972 139 l 833 139 l 833 694 l 694 694 l 694 833 l 417 833 l 417 694 l 556 694 l 556 0 l 694 0 m 278 0 l 278 -139 l 556 -139 l 556 0 l 417 0 l 417 417 l 278 417 l 278 278 l 139 278 l 139 0 l 278 0 m 278 417 l 278 556 l 139 556 l 139 417 l 278 417 m 417 556 l 417 694 l 278 694 l 278 556 l 417 556 m 417 972 l 417 1111 l 556 1111 l 556 972 l 417 972 m 278 972 l 417 972 l 417 833 l 278 833 l 278 972 m 556 972 l 694 972 l 694 833 l 556 833 l 556 972 m 694 1111 l 833 1111 l 833 972 l 694 972 l 694 1111 z "},"æ":{"ha":972,"x_min":0,"x_max":972,"o":"m 278 694 l 278 556 l 139 556 l 139 694 l 278 694 m 0 278 l 139 278 l 139 417 l 278 417 l 278 0 l 417 0 l 417 -139 l 139 -139 l 139 0 l 0 0 l 0 278 m 0 556 l 139 556 l 139 417 l 0 417 l 0 556 m 278 556 l 417 556 l 417 694 l 278 694 l 278 833 l 833 833 l 833 694 l 972 694 l 972 417 l 694 417 l 694 694 l 556 694 l 556 417 l 694 417 l 694 278 l 556 278 l 556 0 l 417 0 l 417 417 l 278 417 l 278 556 m 556 0 l 833 0 l 833 -139 l 556 -139 l 556 0 m 833 139 l 972 139 l 972 0 l 833 0 l 833 139 z "},"b":{"ha":972,"x_min":139,"x_max":833,"o":"m 278 0 l 278 -139 l 556 -139 l 556 0 l 417 0 l 417 694 l 556 694 l 556 0 l 694 0 l 694 139 l 833 139 l 833 694 l 694 694 l 694 833 l 417 833 l 417 1111 l 278 1111 l 278 972 l 139 972 l 139 0 l 278 0 z "},"c":{"ha":972,"x_min":139,"x_max":833,"o":"m 417 694 l 278 694 l 278 556 l 139 556 l 139 0 l 278 0 l 278 -139 l 694 -139 l 694 0 l 417 0 l 417 694 m 556 694 l 556 417 l 694 417 l 694 556 l 833 556 l 833 694 l 694 694 l 694 833 l 417 833 l 417 694 l 556 694 m 833 0 l 833 139 l 694 139 l 694 0 l 833 0 z "},"ç":{"ha":972,"x_min":139,"x_max":833,"o":"m 278 0 l 139 0 l 139 556 l 278 556 l 278 694 l 417 694 l 417 0 l 694 0 l 694 -139 l 556 -139 l 556 -278 l 417 -278 l 417 -139 l 278 -139 l 278 0 m 417 833 l 694 833 l 694 694 l 833 694 l 833 556 l 694 556 l 694 417 l 556 417 l 556 694 l 417 694 l 417 833 m 694 139 l 833 139 l 833 0 l 694 0 l 694 139 z "},"d":{"ha":972,"x_min":139,"x_max":833,"o":"m 278 833 l 278 694 l 417 694 l 417 556 l 556 556 l 556 0 l 694 0 l 694 139 l 833 139 l 833 694 l 694 694 l 694 833 l 556 833 l 556 972 l 139 972 l 139 833 l 278 833 m 278 0 l 278 -139 l 556 -139 l 556 0 l 417 0 l 417 556 l 278 556 l 278 417 l 139 417 l 139 0 l 278 0 z "},"e":{"ha":972,"x_min":139,"x_max":833,"o":"m 556 417 l 417 417 l 417 694 l 278 694 l 278 556 l 139 556 l 139 0 l 278 0 l 278 -139 l 694 -139 l 694 0 l 417 0 l 417 278 l 556 278 l 556 417 m 556 694 l 556 417 l 833 417 l 833 694 l 694 694 l 694 833 l 417 833 l 417 694 l 556 694 m 833 0 l 833 139 l 694 139 l 694 0 l 833 0 z "},"é":{"ha":972,"x_min":139,"x_max":833,"o":"m 694 972 l 694 1111 l 556 1111 l 556 972 l 694 972 m 278 0 l 278 -139 l 694 -139 l 694 0 l 417 0 l 417 278 l 556 278 l 556 417 l 417 417 l 417 694 l 278 694 l 278 556 l 139 556 l 139 0 l 278 0 m 556 694 l 556 417 l 833 417 l 833 694 l 694 694 l 694 833 l 556 833 l 556 972 l 417 972 l 417 694 l 556 694 m 833 0 l 833 139 l 694 139 l 694 0 l 833 0 z "},"ê":{"ha":972,"x_min":139,"x_max":833,"o":"m 694 972 l 694 1111 l 417 1111 l 417 972 l 694 972 m 278 0 l 278 -139 l 694 -139 l 694 0 l 417 0 l 417 278 l 556 278 l 556 417 l 417 417 l 417 694 l 278 694 l 278 556 l 139 556 l 139 0 l 278 0 m 417 833 l 417 972 l 278 972 l 278 833 l 417 833 m 556 694 l 556 417 l 833 417 l 833 694 l 694 694 l 694 833 l 417 833 l 417 694 l 556 694 m 833 0 l 833 139 l 694 139 l 694 0 l 833 0 m 833 833 l 833 972 l 694 972 l 694 833 l 833 833 z "},"ë":{"ha":972,"x_min":139,"x_max":833,"o":"m 694 972 l 694 1111 l 556 1111 l 556 972 l 694 972 m 278 0 l 278 -139 l 694 -139 l 694 0 l 417 0 l 417 278 l 556 278 l 556 417 l 417 417 l 417 694 l 278 694 l 278 556 l 139 556 l 139 0 l 278 0 m 417 972 l 417 1111 l 278 1111 l 278 972 l 417 972 m 556 694 l 556 417 l 833 417 l 833 694 l 694 694 l 694 833 l 417 833 l 417 694 l 556 694 m 833 0 l 833 139 l 694 139 l 694 0 l 833 0 z "},"è":{"ha":972,"x_min":139,"x_max":833,"o":"m 417 1111 l 417 972 l 556 972 l 556 1111 l 417 1111 m 278 0 l 278 -139 l 694 -139 l 694 0 l 417 0 l 417 278 l 556 278 l 556 417 l 417 417 l 417 694 l 278 694 l 278 556 l 139 556 l 139 0 l 278 0 m 556 694 l 556 417 l 833 417 l 833 694 l 694 694 l 694 972 l 556 972 l 556 833 l 417 833 l 417 694 l 556 694 m 833 0 l 833 139 l 694 139 l 694 0 l 833 0 z "},"f":{"ha":972,"x_min":139,"x_max":972,"o":"m 833 556 l 833 833 l 972 833 l 972 972 l 833 972 l 833 1111 l 556 1111 l 556 972 l 694 972 l 694 694 l 556 694 l 556 972 l 417 972 l 417 833 l 278 833 l 278 694 l 139 694 l 139 556 l 278 556 l 278 -139 l 417 -139 l 417 -278 l 556 -278 l 556 -139 l 694 -139 l 694 0 l 556 0 l 556 556 l 833 556 z "},"g":{"ha":972,"x_min":139,"x_max":833,"o":"m 556 833 l 417 833 l 417 694 l 556 694 l 556 833 m 278 -139 l 278 0 l 139 0 l 139 -139 l 278 -139 m 278 278 l 278 0 l 417 0 l 417 139 l 556 139 l 556 -139 l 694 -139 l 694 0 l 833 0 l 833 833 l 694 833 l 694 694 l 556 694 l 556 278 l 417 278 l 417 694 l 278 694 l 278 556 l 139 556 l 139 278 l 278 278 m 556 -278 l 556 -139 l 278 -139 l 278 -278 l 556 -278 z "},"h":{"ha":972,"x_min":0,"x_max":833,"o":"m 417 1111 l 278 1111 l 278 972 l 139 972 l 139 833 l 0 833 l 0 694 l 139 694 l 139 0 l 278 0 l 278 139 l 417 139 l 417 556 l 556 556 l 556 -139 l 694 -139 l 694 0 l 833 0 l 833 694 l 694 694 l 694 833 l 556 833 l 556 694 l 417 694 l 417 1111 m 556 -278 l 556 -139 l 417 -139 l 417 -278 l 556 -278 z "},"i":{"ha":972,"x_min":139,"x_max":972,"o":"m 833 0 l 833 139 l 694 139 l 694 833 l 556 833 l 556 694 l 417 694 l 417 556 l 278 556 l 278 417 l 417 417 l 417 0 l 556 0 l 556 -139 l 694 -139 l 694 0 l 833 0 m 278 278 l 278 417 l 139 417 l 139 278 l 278 278 m 556 833 l 556 972 l 417 972 l 417 833 l 556 833 m 694 972 l 694 1111 l 556 1111 l 556 972 l 694 972 m 972 139 l 972 278 l 833 278 l 833 139 l 972 139 z "},"ı":{"ha":972,"x_min":139,"x_max":972,"o":"m 556 -139 l 556 0 l 417 0 l 417 417 l 278 417 l 278 556 l 417 556 l 417 694 l 556 694 l 556 833 l 694 833 l 694 139 l 833 139 l 833 0 l 694 0 l 694 -139 l 556 -139 m 139 417 l 278 417 l 278 278 l 139 278 l 139 417 m 833 278 l 972 278 l 972 139 l 833 139 l 833 278 z "},"í":{"ha":972,"x_min":139,"x_max":972,"o":"m 417 833 l 417 694 l 278 694 l 278 833 l 417 833 m 278 278 l 278 417 l 417 417 l 417 0 l 556 0 l 556 -139 l 694 -139 l 694 0 l 833 0 l 833 139 l 972 139 l 972 278 l 833 278 l 833 139 l 694 139 l 694 833 l 556 833 l 556 972 l 694 972 l 694 1111 l 556 1111 l 556 972 l 417 972 l 417 833 l 556 833 l 556 694 l 417 694 l 417 556 l 278 556 l 278 417 l 139 417 l 139 278 l 278 278 z "},"î":{"ha":972,"x_min":139,"x_max":972,"o":"m 694 1111 l 556 1111 l 556 972 l 694 972 l 694 1111 m 278 278 l 278 417 l 139 417 l 139 278 l 278 278 m 417 417 l 417 0 l 556 0 l 556 -139 l 694 -139 l 694 0 l 833 0 l 833 139 l 694 139 l 694 833 l 556 833 l 556 694 l 417 694 l 417 556 l 278 556 l 278 417 l 417 417 m 556 833 l 556 972 l 417 972 l 417 833 l 556 833 m 694 972 l 833 972 l 833 833 l 694 833 l 694 972 m 972 139 l 972 278 l 833 278 l 833 139 l 972 139 z "},"ï":{"ha":972,"x_min":139,"x_max":972,"o":"m 833 0 l 833 139 l 694 139 l 694 833 l 556 833 l 556 694 l 417 694 l 417 556 l 278 556 l 278 417 l 417 417 l 417 0 l 556 0 l 556 -139 l 694 -139 l 694 0 l 833 0 m 278 278 l 278 417 l 139 417 l 139 278 l 278 278 m 556 972 l 556 1111 l 417 1111 l 417 972 l 556 972 m 833 972 l 833 1111 l 694 1111 l 694 972 l 833 972 m 972 139 l 972 278 l 833 278 l 833 139 l 972 139 z "},"ì":{"ha":972,"x_min":139,"x_max":972,"o":"m 556 -139 l 556 0 l 417 0 l 417 417 l 278 417 l 278 556 l 417 556 l 417 694 l 556 694 l 556 833 l 694 833 l 694 139 l 833 139 l 833 0 l 694 0 l 694 -139 l 556 -139 m 139 417 l 278 417 l 278 278 l 139 278 l 139 417 m 556 1111 l 694 1111 l 694 972 l 556 972 l 556 1111 m 694 972 l 833 972 l 833 833 l 694 833 l 694 972 m 833 278 l 972 278 l 972 139 l 833 139 l 833 278 z "},"j":{"ha":972,"x_min":0,"x_max":972,"o":"m 556 833 l 556 694 l 417 694 l 417 556 l 278 556 l 278 417 l 417 417 l 417 -139 l 556 -139 l 556 0 l 694 0 l 694 279 l 833 279 l 833 417 l 694 417 l 694 833 l 556 833 m 139 -139 l 139 -278 l 417 -278 l 417 -139 l 278 -139 l 278 139 l 139 139 l 139 0 l 0 0 l 0 -139 l 139 -139 m 278 278 l 278 417 l 139 417 l 139 278 l 278 278 m 556 833 l 556 972 l 417 972 l 417 833 l 556 833 m 694 972 l 694 1111 l 556 1111 l 556 972 l 694 972 m 972 417 l 972 556 l 833 556 l 833 417 l 972 417 z "},"k":{"ha":972,"x_min":0,"x_max":833,"o":"m 694 556 l 833 556 l 833 694 l 694 694 l 694 833 l 556 833 l 556 694 l 417 694 l 417 1111 l 278 1111 l 278 972 l 139 972 l 139 833 l 0 833 l 0 694 l 139 694 l 139 -139 l 278 -139 l 278 0 l 417 0 l 417 278 l 556 278 l 556 -139 l 694 -139 l 694 0 l 833 0 l 833 417 l 694 417 l 694 556 m 556 -278 l 556 -139 l 417 -139 l 417 -278 l 556 -278 m 417 556 l 556 556 l 556 417 l 417 417 l 417 556 z "},"l":{"ha":972,"x_min":139,"x_max":972,"o":"m 278 417 l 278 694 l 139 694 l 139 417 l 278 417 m 417 278 l 417 0 l 556 0 l 556 -139 l 694 -139 l 694 0 l 833 0 l 833 139 l 694 139 l 694 1111 l 556 1111 l 556 972 l 417 972 l 417 833 l 278 833 l 278 694 l 417 694 l 417 417 l 278 417 l 278 278 l 417 278 m 972 139 l 972 278 l 833 278 l 833 139 l 972 139 z "},"m":{"ha":972,"x_min":0,"x_max":972,"o":"m 556 0 l 556 -139 l 417 -139 l 417 0 l 278 0 l 278 -139 l 139 -139 l 139 0 l 0 0 l 0 694 l 139 694 l 139 833 l 278 833 l 278 692 l 417 692 l 417 833 l 556 833 l 556 692 l 694 692 l 694 833 l 833 833 l 833 139 l 972 139 l 972 0 l 833 0 l 833 -139 l 694 -139 l 694 0 l 556 0 m 417 139 l 417 418 l 278 418 l 278 139 l 417 139 m 694 139 l 694 418 l 556 418 l 556 139 l 694 139 z "},"n":{"ha":972,"x_min":0,"x_max":972,"o":"m 833 0 l 972 0 l 972 139 l 833 139 l 833 694 l 694 694 l 694 833 l 417 833 l 417 694 l 556 694 l 556 0 l 694 0 l 694 -139 l 833 -139 l 833 0 m 139 556 l 139 0 l 278 0 l 278 -139 l 417 -139 l 417 694 l 278 694 l 278 833 l 139 833 l 139 694 l 0 694 l 0 556 l 139 556 z "},"ñ":{"ha":972,"x_min":0,"x_max":972,"o":"m 417 972 l 417 833 l 278 833 l 278 972 l 417 972 m 0 694 l 139 694 l 139 833 l 278 833 l 278 694 l 417 694 l 417 -139 l 278 -139 l 278 0 l 139 0 l 139 556 l 0 556 l 0 694 m 417 833 l 556 833 l 556 972 l 694 972 l 694 694 l 833 694 l 833 139 l 972 139 l 972 0 l 833 0 l 833 -139 l 694 -139 l 694 0 l 556 0 l 556 694 l 417 694 l 417 833 m 417 1111 l 556 1111 l 556 972 l 417 972 l 417 1111 m 694 1111 l 833 1111 l 833 972 l 694 972 l 694 1111 z "},"o":{"ha":972,"x_min":139,"x_max":833,"o":"m 694 139 l 833 139 l 833 694 l 694 694 l 694 833 l 417 833 l 417 694 l 556 694 l 556 0 l 694 0 l 694 139 m 278 0 l 278 -139 l 556 -139 l 556 0 l 417 0 l 417 694 l 278 694 l 278 556 l 139 556 l 139 0 l 278 0 z "},"ó":{"ha":972,"x_min":139,"x_max":833,"o":"m 694 972 l 694 1111 l 556 1111 l 556 972 l 694 972 m 278 0 l 278 -139 l 556 -139 l 556 0 l 417 0 l 417 694 l 278 694 l 278 556 l 139 556 l 139 0 l 278 0 m 556 694 l 556 0 l 694 0 l 694 139 l 833 139 l 833 694 l 694 694 l 694 833 l 556 833 l 556 972 l 417 972 l 417 694 l 556 694 z "},"ô":{"ha":972,"x_min":139,"x_max":833,"o":"m 694 972 l 694 1111 l 417 1111 l 417 972 l 694 972 m 278 0 l 278 -139 l 556 -139 l 556 0 l 417 0 l 417 694 l 278 694 l 278 556 l 139 556 l 139 0 l 278 0 m 417 833 l 417 972 l 278 972 l 278 833 l 417 833 m 556 694 l 556 0 l 694 0 l 694 139 l 833 139 l 833 694 l 694 694 l 694 833 l 417 833 l 417 694 l 556 694 m 833 833 l 833 972 l 694 972 l 694 833 l 833 833 z "},"ö":{"ha":972,"x_min":139,"x_max":833,"o":"m 694 972 l 694 1111 l 556 1111 l 556 972 l 694 972 m 278 0 l 278 -139 l 556 -139 l 556 0 l 417 0 l 417 694 l 278 694 l 278 556 l 139 556 l 139 0 l 278 0 m 417 972 l 417 1111 l 278 1111 l 278 972 l 417 972 m 556 694 l 556 0 l 694 0 l 694 139 l 833 139 l 833 694 l 694 694 l 694 833 l 417 833 l 417 694 l 556 694 z "},"ò":{"ha":972,"x_min":139,"x_max":833,"o":"m 417 1111 l 417 972 l 556 972 l 556 1111 l 417 1111 m 278 0 l 278 -139 l 556 -139 l 556 0 l 417 0 l 417 694 l 278 694 l 278 556 l 139 556 l 139 0 l 278 0 m 556 694 l 556 0 l 694 0 l 694 139 l 833 139 l 833 694 l 694 694 l 694 972 l 556 972 l 556 833 l 417 833 l 417 694 l 556 694 z "},"ø":{"ha":972,"x_min":0,"x_max":972,"o":"m 139 -139 l 139 0 l 0 0 l 0 -139 l 139 -139 m 278 0 l 278 -139 l 556 -139 l 556 0 l 417 0 l 417 278 l 556 278 l 556 0 l 694 0 l 694 139 l 833 139 l 833 694 l 694 694 l 694 833 l 417 833 l 417 694 l 556 694 l 556 417 l 417 417 l 417 694 l 278 694 l 278 556 l 139 556 l 139 0 l 278 0 m 972 694 l 972 833 l 833 833 l 833 694 l 972 694 z "},"œ":{"ha":972,"x_min":0,"x_max":972,"o":"m 278 833 l 833 833 l 833 694 l 972 694 l 972 417 l 694 417 l 694 694 l 556 694 l 556 417 l 694 417 l 694 278 l 556 278 l 556 0 l 833 0 l 833 -139 l 139 -139 l 139 0 l 0 0 l 0 556 l 139 556 l 139 694 l 278 694 l 278 833 m 417 0 l 417 694 l 278 694 l 278 0 l 417 0 m 833 139 l 972 139 l 972 0 l 833 0 l 833 139 z "},"p":{"ha":972,"x_min":0,"x_max":833,"o":"m 278 -139 l 278 -278 l 417 -278 l 417 0 l 556 0 l 556 139 l 417 139 l 417 694 l 278 694 l 278 833 l 139 833 l 139 694 l 0 694 l 0 556 l 139 556 l 139 -139 l 278 -139 m 556 694 l 556 139 l 694 139 l 694 278 l 833 278 l 833 694 l 694 694 l 694 833 l 417 833 l 417 694 l 556 694 z "},"q":{"ha":972,"x_min":139,"x_max":972,"o":"m 972 694 l 972 833 l 833 833 l 833 694 l 972 694 m 278 139 l 278 0 l 556 0 l 556 -278 l 694 -278 l 694 -139 l 833 -139 l 833 694 l 694 694 l 694 833 l 417 833 l 417 694 l 556 694 l 556 139 l 417 139 l 417 694 l 278 694 l 278 556 l 139 556 l 139 139 l 278 139 z "},"r":{"ha":972,"x_min":0,"x_max":833,"o":"m 417 0 l 556 0 l 556 139 l 417 139 l 417 694 l 278 694 l 278 833 l 139 833 l 139 694 l 0 694 l 0 556 l 139 556 l 139 0 l 278 0 l 278 -139 l 417 -139 l 417 0 m 556 694 l 556 278 l 694 278 l 694 417 l 833 417 l 833 694 l 694 694 l 694 833 l 417 833 l 417 694 l 556 694 z "},"s":{"ha":972,"x_min":0,"x_max":972,"o":"m 833 139 l 833 417 l 694 417 l 694 556 l 556 556 l 556 417 l 417 417 l 417 694 l 278 694 l 278 556 l 139 556 l 139 278 l 278 278 l 278 139 l 417 139 l 417 278 l 556 278 l 556 0 l 694 0 l 694 139 l 833 139 m 139 -139 l 139 0 l 0 0 l 0 -139 l 139 -139 m 278 0 l 278 139 l 139 139 l 139 0 l 278 0 m 556 -139 l 556 0 l 278 0 l 278 -139 l 556 -139 m 694 694 l 694 833 l 417 833 l 417 694 l 694 694 m 833 556 l 833 694 l 694 694 l 694 556 l 833 556 m 972 694 l 972 833 l 833 833 l 833 694 l 972 694 z "},"ß":{"ha":972,"x_min":139,"x_max":972,"o":"m 556 139 l 556 0 l 417 0 l 417 -139 l 278 -139 l 278 0 l 139 0 l 139 833 l 278 833 l 278 972 l 417 972 l 417 694 l 556 694 l 556 556 l 417 556 l 417 139 l 556 139 m 417 1111 l 556 1111 l 556 972 l 417 972 l 417 1111 m 556 -139 l 694 -139 l 694 -278 l 556 -278 l 556 -139 m 556 417 l 694 417 l 694 694 l 556 694 l 556 833 l 694 833 l 694 972 l 833 972 l 833 833 l 972 833 l 972 556 l 833 556 l 833 417 l 972 417 l 972 0 l 833 0 l 833 139 l 694 139 l 694 278 l 556 278 l 556 417 m 694 0 l 833 0 l 833 -139 l 694 -139 l 694 0 z "},"t":{"ha":972,"x_min":139,"x_max":833,"o":"m 694 0 l 694 139 l 556 139 l 556 556 l 833 556 l 833 694 l 556 694 l 556 972 l 417 972 l 417 833 l 278 833 l 278 694 l 139 694 l 139 556 l 278 556 l 278 0 l 417 0 l 417 -139 l 556 -139 l 556 0 l 694 0 m 833 139 l 833 278 l 694 278 l 694 139 l 833 139 z "},"u":{"ha":972,"x_min":0,"x_max":972,"o":"m 139 417 l 139 0 l 278 0 l 278 -139 l 556 -139 l 556 0 l 417 0 l 417 833 l 278 833 l 278 694 l 139 694 l 139 556 l 0 556 l 0 417 l 139 417 m 694 0 l 694 -139 l 833 -139 l 833 0 l 972 0 l 972 139 l 833 139 l 833 833 l 694 833 l 694 694 l 556 694 l 556 0 l 694 0 z "},"ú":{"ha":972,"x_min":0,"x_max":972,"o":"m 694 972 l 694 1111 l 556 1111 l 556 972 l 694 972 m 139 417 l 139 0 l 278 0 l 278 -139 l 556 -139 l 556 0 l 417 0 l 417 833 l 278 833 l 278 694 l 139 694 l 139 556 l 0 556 l 0 417 l 139 417 m 556 833 l 556 972 l 417 972 l 417 833 l 556 833 m 694 0 l 694 -139 l 833 -139 l 833 0 l 972 0 l 972 139 l 833 139 l 833 833 l 694 833 l 694 694 l 556 694 l 556 0 l 694 0 z "},"û":{"ha":972,"x_min":0,"x_max":972,"o":"m 556 972 l 556 1111 l 417 1111 l 417 972 l 556 972 m 139 278 l 139 0 l 278 0 l 278 -139 l 556 -139 l 556 0 l 417 0 l 417 694 l 278 694 l 278 556 l 139 556 l 139 417 l 0 417 l 0 278 l 139 278 m 417 833 l 417 972 l 278 972 l 278 833 l 417 833 m 694 0 l 694 -139 l 833 -139 l 833 0 l 972 0 l 972 139 l 833 139 l 833 694 l 694 694 l 694 556 l 556 556 l 556 0 l 694 0 m 694 833 l 694 972 l 556 972 l 556 833 l 694 833 z "},"ü":{"ha":972,"x_min":0,"x_max":972,"o":"m 694 972 l 694 1111 l 556 1111 l 556 972 l 694 972 m 139 417 l 139 0 l 278 0 l 278 -139 l 556 -139 l 556 0 l 417 0 l 417 833 l 278 833 l 278 694 l 139 694 l 139 556 l 0 556 l 0 417 l 139 417 m 417 972 l 417 1111 l 278 1111 l 278 972 l 417 972 m 694 0 l 694 -139 l 833 -139 l 833 0 l 972 0 l 972 139 l 833 139 l 833 833 l 694 833 l 694 694 l 556 694 l 556 0 l 694 0 z "},"ù":{"ha":972,"x_min":0,"x_max":972,"o":"m 278 1111 l 278 972 l 417 972 l 417 1111 l 278 1111 m 139 417 l 139 0 l 278 0 l 278 -139 l 556 -139 l 556 0 l 417 0 l 417 833 l 278 833 l 278 694 l 139 694 l 139 556 l 0 556 l 0 417 l 139 417 m 556 833 l 556 972 l 417 972 l 417 833 l 556 833 m 694 0 l 694 -139 l 833 -139 l 833 0 l 972 0 l 972 139 l 833 139 l 833 833 l 694 833 l 694 694 l 556 694 l 556 0 l 694 0 z "},"v":{"ha":972,"x_min":0,"x_max":833,"o":"m 139 556 l 139 0 l 278 0 l 278 -139 l 556 -139 l 556 0 l 417 0 l 417 694 l 278 694 l 278 833 l 139 833 l 139 694 l 0 694 l 0 556 l 139 556 m 694 0 l 694 139 l 833 139 l 833 694 l 694 694 l 694 833 l 556 833 l 556 0 l 694 0 z "},"w":{"ha":972,"x_min":0,"x_max":972,"o":"m 556 0 l 556 -139 l 417 -139 l 417 0 l 278 0 l 278 -139 l 139 -139 l 139 0 l 0 0 l 0 694 l 139 694 l 139 833 l 278 833 l 278 692 l 417 692 l 417 833 l 556 833 l 556 692 l 694 692 l 694 833 l 833 833 l 833 139 l 972 139 l 972 0 l 833 0 l 833 -139 l 694 -139 l 694 0 l 556 0 m 417 278 l 417 557 l 278 557 l 278 278 l 417 278 m 694 278 l 694 557 l 556 557 l 556 278 l 694 278 z "},"x":{"ha":972,"x_min":0,"x_max":833,"o":"m 417 -139 l 417 0 l 278 0 l 278 556 l 139 556 l 139 694 l 278 694 l 278 833 l 417 833 l 417 694 l 556 694 l 556 139 l 694 139 l 694 0 l 556 0 l 556 -139 l 417 -139 m 0 139 l 139 139 l 139 0 l 278 0 l 278 -139 l 0 -139 l 0 139 m 0 556 l 139 556 l 139 417 l 0 417 l 0 556 m 556 833 l 833 833 l 833 556 l 694 556 l 694 694 l 556 694 l 556 833 m 694 278 l 833 278 l 833 139 l 694 139 l 694 278 z "},"y":{"ha":972,"x_min":0,"x_max":833,"o":"m 694 -139 l 556 -139 l 556 0 l 278 0 l 278 139 l 139 139 l 139 556 l 0 556 l 0 694 l 139 694 l 139 833 l 278 833 l 278 694 l 417 694 l 417 139 l 556 139 l 556 833 l 694 833 l 694 694 l 833 694 l 833 0 l 694 0 l 694 -139 m 139 0 l 278 0 l 278 -139 l 139 -139 l 139 0 m 278 -139 l 556 -139 l 556 -278 l 278 -278 l 278 -139 z "},"ý":{"ha":972,"x_min":0,"x_max":833,"o":"m 694 -139 l 556 -139 l 556 0 l 278 0 l 278 139 l 139 139 l 139 556 l 0 556 l 0 694 l 139 694 l 139 833 l 278 833 l 278 694 l 417 694 l 417 139 l 556 139 l 556 833 l 694 833 l 694 694 l 833 694 l 833 0 l 694 0 l 694 -139 m 139 0 l 278 0 l 278 -139 l 139 -139 l 139 0 m 278 -139 l 556 -139 l 556 -278 l 278 -278 l 278 -139 m 417 972 l 417 833 l 278 833 l 278 972 l 417 972 m 417 1111 l 556 1111 l 556 972 l 417 972 l 417 1111 z "},"ÿ":{"ha":972,"x_min":0,"x_max":833,"o":"m 694 -139 l 556 -139 l 556 0 l 278 0 l 278 139 l 139 139 l 139 556 l 0 556 l 0 694 l 139 694 l 139 833 l 278 833 l 278 694 l 417 694 l 417 139 l 556 139 l 556 833 l 694 833 l 694 694 l 833 694 l 833 0 l 694 0 l 694 -139 m 139 0 l 278 0 l 278 -139 l 139 -139 l 139 0 m 278 -139 l 556 -139 l 556 -278 l 278 -278 l 278 -139 m 417 972 l 278 972 l 278 1111 l 417 1111 l 417 972 m 556 1111 l 694 1111 l 694 972 l 556 972 l 556 1111 z "},"z":{"ha":972,"x_min":0,"x_max":833,"o":"m 417 694 l 417 417 l 278 417 l 278 278 l 417 278 l 417 139 l 556 139 l 556 -139 l 694 -139 l 694 0 l 833 0 l 833 278 l 694 278 l 694 417 l 556 417 l 556 556 l 694 556 l 694 694 l 833 694 l 833 833 l 278 833 l 278 694 l 417 694 m 139 417 l 139 556 l 0 556 l 0 417 l 139 417 m 278 -139 l 278 0 l 139 0 l 139 -139 l 278 -139 m 278 556 l 278 694 l 139 694 l 139 556 l 278 556 m 556 -278 l 556 -139 l 278 -139 l 278 -278 l 556 -278 m 417 0 l 417 139 l 278 139 l 278 0 l 417 0 z "},"º":{"ha":972,"x_min":139,"x_max":833,"o":"m 694 694 l 833 694 l 833 972 l 694 972 l 694 1111 l 417 1111 l 417 972 l 556 972 l 556 556 l 694 556 l 694 694 m 278 556 l 278 417 l 556 417 l 556 556 l 417 556 l 417 972 l 278 972 l 278 833 l 139 833 l 139 556 l 278 556 z "},"⁄":{"ha":972,"x_min":278,"x_max":694,"o":"m 694 694 l 694 1111 l 556 1111 l 556 694 l 694 694 m 417 -139 l 417 278 l 278 278 l 278 -139 l 417 -139 m 556 278 l 556 694 l 417 694 l 417 278 l 556 278 z "},".":{"ha":972,"x_min":278,"x_max":556,"o":"m 417 278 l 417 139 l 278 139 l 278 -139 l 417 -139 l 417 0 l 556 0 l 556 278 l 417 278 z "},",":{"ha":972,"x_min":139,"x_max":556,"o":"m 417 278 l 417 139 l 278 139 l 278 -139 l 417 -139 l 417 0 l 556 0 l 556 278 l 417 278 m 278 -278 l 278 -139 l 139 -139 l 139 -278 l 278 -278 z "},":":{"ha":972,"x_min":278,"x_max":556,"o":"m 417 -139 l 417 0 l 556 0 l 556 278 l 417 278 l 417 139 l 278 139 l 278 -139 l 417 -139 m 417 417 l 417 556 l 556 556 l 556 833 l 417 833 l 417 694 l 278 694 l 278 417 l 417 417 z "},";":{"ha":972,"x_min":139,"x_max":556,"o":"m 417 694 l 417 833 l 556 833 l 556 556 l 417 556 l 417 417 l 278 417 l 278 694 l 417 694 m 139 -139 l 278 -139 l 278 -278 l 139 -278 l 139 -139 m 278 139 l 417 139 l 417 278 l 556 278 l 556 0 l 417 0 l 417 -139 l 278 -139 l 278 139 z "},"…":{"ha":972,"x_min":139,"x_max":833,"o":"m 278 -139 l 278 139 l 139 139 l 139 -139 l 278 -139 m 556 -139 l 556 139 l 417 139 l 417 -139 l 556 -139 m 833 -139 l 833 139 l 694 139 l 694 -139 l 833 -139 z "},"!":{"ha":972,"x_min":278,"x_max":556,"o":"m 556 0 l 417 0 l 417 -139 l 278 -139 l 278 139 l 417 139 l 417 278 l 556 278 l 556 0 m 278 972 l 417 972 l 417 1111 l 556 1111 l 556 417 l 417 417 l 417 278 l 278 278 l 278 972 z "},"¡":{"ha":972,"x_min":278,"x_max":556,"o":"m 278 972 l 417 972 l 417 1111 l 556 1111 l 556 833 l 417 833 l 417 694 l 278 694 l 278 972 m 278 556 l 417 556 l 417 694 l 556 694 l 556 0 l 417 0 l 417 -139 l 278 -139 l 278 556 z "},"?":{"ha":972,"x_min":278,"x_max":833,"o":"m 556 972 l 556 833 l 417 833 l 417 278 l 556 278 l 556 417 l 694 417 l 694 833 l 833 833 l 833 972 l 694 972 l 694 1111 l 417 1111 l 417 972 l 556 972 m 417 833 l 417 972 l 278 972 l 278 833 l 417 833 m 556 -139 l 556 0 l 694 0 l 694 278 l 556 278 l 556 139 l 417 139 l 417 -139 l 556 -139 z "},"¿":{"ha":972,"x_min":278,"x_max":833,"o":"m 556 0 l 556 139 l 694 139 l 694 0 l 556 0 m 417 0 l 417 -139 l 694 -139 l 694 0 l 833 0 l 833 139 l 694 139 l 694 694 l 556 694 l 556 833 l 694 833 l 694 1111 l 556 1111 l 556 972 l 417 972 l 417 694 l 556 694 l 556 556 l 417 556 l 417 139 l 278 139 l 278 0 l 417 0 z "},"·":{"ha":972,"x_min":139,"x_max":833,"o":"m 278 417 l 278 556 l 417 556 l 417 694 l 556 694 l 556 556 l 694 556 l 694 417 l 833 417 l 833 278 l 694 278 l 694 139 l 556 139 l 556 0 l 417 0 l 417 139 l 278 139 l 278 278 l 139 278 l 139 417 l 278 417 z "},"•":{"ha":972,"x_min":417,"x_max":694,"o":"m 694 556 l 694 278 l 417 278 l 417 556 l 694 556 z "},"*":{"ha":972,"x_min":139,"x_max":833,"o":"m 694 556 l 694 694 l 556 694 l 556 556 l 694 556 m 278 694 l 278 833 l 139 833 l 139 694 l 278 694 m 417 556 l 417 694 l 278 694 l 278 556 l 417 556 m 417 833 l 417 972 l 278 972 l 278 833 l 417 833 m 556 417 l 556 556 l 417 556 l 417 417 l 556 417 m 556 694 l 556 833 l 417 833 l 417 694 l 556 694 m 556 972 l 556 1111 l 417 1111 l 417 972 l 556 972 m 694 833 l 694 972 l 556 972 l 556 833 l 694 833 m 833 694 l 833 833 l 694 833 l 694 694 l 833 694 z "},"‼":{"ha":972,"x_min":139,"x_max":833,"o":"m 833 0 l 694 0 l 694 -139 l 556 -139 l 556 139 l 694 139 l 694 278 l 833 278 l 833 0 m 139 139 l 278 139 l 278 278 l 417 278 l 417 0 l 278 0 l 278 -139 l 139 -139 l 139 139 m 139 972 l 278 972 l 278 1111 l 417 1111 l 417 417 l 278 417 l 278 278 l 139 278 l 139 972 m 556 972 l 694 972 l 694 1111 l 833 1111 l 833 417 l 694 417 l 694 278 l 556 278 l 556 972 z "},"#":{"ha":972,"x_min":0,"x_max":972,"o":"m 417 139 l 278 139 l 278 -139 l 139 -139 l 139 139 l 0 139 l 0 278 l 278 278 l 278 556 l 0 556 l 0 694 l 417 694 l 417 972 l 556 972 l 556 694 l 694 694 l 694 972 l 833 972 l 833 694 l 972 694 l 972 556 l 694 556 l 694 278 l 972 278 l 972 139 l 556 139 l 556 -139 l 417 -139 l 417 139 m 556 278 l 556 556 l 417 556 l 417 278 l 556 278 z "},"/":{"ha":972,"x_min":139,"x_max":833,"o":"m 694 556 l 694 833 l 556 833 l 556 556 l 694 556 m 278 -278 l 278 0 l 139 0 l 139 -278 l 278 -278 m 417 0 l 417 278 l 278 278 l 278 0 l 417 0 m 556 278 l 556 556 l 417 556 l 417 278 l 556 278 m 833 833 l 833 1111 l 694 1111 l 694 833 l 833 833 z "},"\\":{"ha":972,"x_min":139,"x_max":833,"o":"m 278 833 l 278 556 l 417 556 l 417 833 l 278 833 m 278 833 l 278 1111 l 139 1111 l 139 833 l 278 833 m 556 278 l 556 556 l 417 556 l 417 278 l 556 278 m 694 0 l 694 278 l 556 278 l 556 0 l 694 0 m 833 -278 l 833 0 l 694 0 l 694 -278 l 833 -278 z "},"-":{"ha":972,"x_min":278,"x_max":833,"o":"m 694 278 l 694 417 l 833 417 l 833 556 l 417 556 l 417 417 l 278 417 l 278 278 l 694 278 z "},"–":{"ha":972,"x_min":139,"x_max":833,"o":"m 694 278 l 694 417 l 833 417 l 833 556 l 278 556 l 278 417 l 139 417 l 139 278 l 694 278 z "},"—":{"ha":972,"x_min":0,"x_max":972,"o":"m 833 278 l 833 417 l 972 417 l 972 556 l 139 556 l 139 417 l 0 417 l 0 278 l 833 278 z "},"_":{"ha":972,"x_min":0,"x_max":972,"o":"m 833 -278 l 833 -139 l 972 -139 l 972 0 l 139 0 l 139 -139 l 0 -139 l 0 -278 l 833 -278 z "},"(":{"ha":972,"x_min":139,"x_max":694,"o":"m 417 -139 l 417 -278 l 556 -278 l 556 -139 l 694 -139 l 694 0 l 556 0 l 556 139 l 417 139 l 417 417 l 278 417 l 278 833 l 139 833 l 139 139 l 278 139 l 278 -139 l 417 -139 m 417 833 l 417 972 l 278 972 l 278 833 l 417 833 m 556 972 l 556 1111 l 417 1111 l 417 972 l 556 972 z "},")":{"ha":972,"x_min":139,"x_max":694,"o":"m 417 972 l 417 1111 l 278 1111 l 278 972 l 139 972 l 139 833 l 278 833 l 278 694 l 417 694 l 417 417 l 556 417 l 556 0 l 694 0 l 694 694 l 556 694 l 556 972 l 417 972 m 417 -278 l 417 -139 l 278 -139 l 278 -278 l 417 -278 m 556 -139 l 556 0 l 417 0 l 417 -139 l 556 -139 z "},"{":{"ha":972,"x_min":139,"x_max":833,"o":"m 278 556 l 278 972 l 556 972 l 556 556 l 417 556 l 417 278 l 556 278 l 556 -139 l 278 -139 l 278 278 l 139 278 l 139 556 l 278 556 m 556 -139 l 833 -139 l 833 -278 l 556 -278 l 556 -139 m 556 1111 l 833 1111 l 833 972 l 556 972 l 556 1111 z "},"}":{"ha":972,"x_min":139,"x_max":833,"o":"m 694 278 l 694 -139 l 417 -139 l 417 278 l 556 278 l 556 556 l 417 556 l 417 972 l 694 972 l 694 556 l 833 556 l 833 278 l 694 278 m 139 -139 l 417 -139 l 417 -278 l 139 -278 l 139 -139 m 139 1111 l 417 1111 l 417 972 l 139 972 l 139 1111 z "},"[":{"ha":972,"x_min":278,"x_max":833,"o":"m 833 1111 l 833 972 l 556 972 l 556 -139 l 833 -139 l 833 -278 l 278 -278 l 278 1111 l 833 1111 z "},"]":{"ha":972,"x_min":139,"x_max":694,"o":"m 139 -278 l 139 -139 l 417 -139 l 417 972 l 139 972 l 139 1111 l 694 1111 l 694 -278 l 139 -278 z "},"‚":{"ha":972,"x_min":278,"x_max":556,"o":"m 278 -278 l 278 0 l 417 0 l 417 139 l 556 139 l 556 -139 l 417 -139 l 417 -278 l 278 -278 z "},"„":{"ha":972,"x_min":139,"x_max":833,"o":"m 556 -278 l 556 0 l 694 0 l 694 139 l 833 139 l 833 -139 l 694 -139 l 694 -278 l 556 -278 m 139 0 l 278 0 l 278 139 l 417 139 l 417 -139 l 278 -139 l 278 -278 l 139 -278 l 139 0 z "},"“":{"ha":972,"x_min":0,"x_max":833,"o":"m 417 694 l 556 694 l 556 833 l 694 833 l 694 694 l 833 694 l 833 556 l 694 556 l 694 417 l 556 417 l 556 556 l 417 556 l 417 694 m 0 833 l 139 833 l 139 972 l 278 972 l 278 833 l 417 833 l 417 694 l 278 694 l 278 556 l 139 556 l 139 694 l 0 694 l 0 833 m 278 1111 l 417 1111 l 417 972 l 278 972 l 278 1111 m 694 972 l 833 972 l 833 833 l 694 833 l 694 972 z "},"”":{"ha":972,"x_min":139,"x_max":972,"o":"m 556 833 l 417 833 l 417 694 l 278 694 l 278 833 l 139 833 l 139 972 l 278 972 l 278 1111 l 417 1111 l 417 972 l 556 972 l 556 833 m 139 694 l 278 694 l 278 556 l 139 556 l 139 694 m 556 556 l 694 556 l 694 417 l 556 417 l 556 556 m 556 833 l 694 833 l 694 972 l 833 972 l 833 833 l 972 833 l 972 694 l 833 694 l 833 556 l 694 556 l 694 694 l 556 694 l 556 833 z "},"‘":{"ha":972,"x_min":278,"x_max":694,"o":"m 556 694 l 556 556 l 417 556 l 417 694 l 278 694 l 278 833 l 417 833 l 417 972 l 556 972 l 556 833 l 694 833 l 694 694 l 556 694 m 556 1111 l 694 1111 l 694 972 l 556 972 l 556 1111 z "},"’":{"ha":972,"x_min":278,"x_max":694,"o":"m 694 833 l 556 833 l 556 694 l 417 694 l 417 833 l 278 833 l 278 972 l 417 972 l 417 1111 l 556 1111 l 556 972 l 694 972 l 694 833 m 278 694 l 417 694 l 417 556 l 278 556 l 278 694 z "},"«":{"ha":972,"x_min":0,"x_max":972,"o":"m 278 556 l 278 694 l 417 694 l 417 556 l 278 556 m 0 417 l 139 417 l 139 556 l 278 556 l 278 417 l 417 417 l 417 278 l 556 278 l 556 139 l 417 139 l 417 0 l 278 0 l 278 139 l 139 139 l 139 278 l 0 278 l 0 417 m 417 556 l 556 556 l 556 694 l 694 694 l 694 556 l 833 556 l 833 417 l 972 417 l 972 278 l 833 278 l 833 139 l 694 139 l 694 278 l 556 278 l 556 417 l 417 417 l 417 556 m 694 833 l 833 833 l 833 694 l 694 694 l 694 833 z "},"»":{"ha":972,"x_min":0,"x_max":972,"o":"m 417 278 l 417 139 l 278 139 l 278 278 l 139 278 l 139 417 l 0 417 l 0 556 l 139 556 l 139 694 l 278 694 l 278 556 l 417 556 l 417 417 l 556 417 l 556 278 l 417 278 m 139 139 l 278 139 l 278 0 l 139 0 l 139 139 m 417 694 l 556 694 l 556 833 l 694 833 l 694 694 l 833 694 l 833 556 l 972 556 l 972 417 l 833 417 l 833 278 l 694 278 l 694 417 l 556 417 l 556 556 l 417 556 l 417 694 m 556 278 l 694 278 l 694 139 l 556 139 l 556 278 z "},"‹":{"ha":972,"x_min":139,"x_max":694,"o":"m 278 417 l 278 556 l 417 556 l 417 417 l 556 417 l 556 278 l 694 278 l 694 139 l 556 139 l 556 0 l 417 0 l 417 139 l 278 139 l 278 278 l 139 278 l 139 417 l 278 417 m 417 694 l 556 694 l 556 556 l 417 556 l 417 694 z "},"›":{"ha":972,"x_min":139,"x_max":694,"o":"m 556 278 l 556 139 l 417 139 l 417 278 l 278 278 l 278 417 l 139 417 l 139 556 l 278 556 l 278 694 l 417 694 l 417 556 l 556 556 l 556 417 l 694 417 l 694 278 l 556 278 m 278 139 l 417 139 l 417 0 l 278 0 l 278 139 z "},"\"":{"ha":972,"x_min":139,"x_max":833,"o":"m 556 694 l 556 972 l 694 972 l 694 1111 l 833 1111 l 833 833 l 694 833 l 694 694 l 556 694 m 139 972 l 278 972 l 278 1111 l 417 1111 l 417 833 l 278 833 l 278 694 l 139 694 l 139 972 z "},"'":{"ha":972,"x_min":278,"x_max":556,"o":"m 278 694 l 278 972 l 417 972 l 417 1111 l 556 1111 l 556 833 l 417 833 l 417 694 l 278 694 z "},"@":{"ha":972,"x_min":0,"x_max":972,"o":"m 694 556 l 694 694 l 833 694 l 833 556 l 972 556 l 972 278 l 833 278 l 833 139 l 694 139 l 694 417 l 556 417 l 556 556 l 694 556 m 0 556 l 139 556 l 139 694 l 278 694 l 278 833 l 694 833 l 694 694 l 417 694 l 417 556 l 278 556 l 278 0 l 139 0 l 139 139 l 0 139 l 0 556 m 278 0 l 417 0 l 417 -139 l 278 -139 l 278 0 m 417 417 l 556 417 l 556 139 l 417 139 l 417 417 m 556 139 l 694 139 l 694 0 l 556 0 l 556 139 z "},"&":{"ha":972,"x_min":0,"x_max":972,"o":"m 139 972 l 139 833 l 0 833 l 0 139 l 139 139 l 139 0 l 278 0 l 278 556 l 417 556 l 417 0 l 556 0 l 556 -139 l 694 -139 l 694 0 l 833 0 l 833 139 l 694 139 l 694 556 l 833 556 l 833 694 l 694 694 l 694 972 l 417 972 l 417 833 l 556 833 l 556 1111 l 278 1111 l 278 972 l 139 972 m 417 -139 l 417 0 l 278 0 l 278 -139 l 417 -139 m 278 833 l 417 833 l 417 694 l 278 694 l 278 833 m 833 972 l 833 1111 l 694 1111 l 694 972 l 833 972 m 972 139 l 972 278 l 833 278 l 833 139 l 972 139 z "},"¶":{"ha":972,"x_min":0,"x_max":972,"o":"m 556 972 l 556 -278 l 417 -278 l 417 417 l 139 417 l 139 556 l 0 556 l 0 972 l 139 972 l 139 1111 l 972 1111 l 972 972 l 833 972 l 833 -278 l 694 -278 l 694 972 l 556 972 z "},"§":{"ha":972,"x_min":139,"x_max":833,"o":"m 556 833 l 694 833 l 694 694 l 833 694 l 833 417 l 694 417 l 694 278 l 833 278 l 833 0 l 694 0 l 694 -139 l 556 -139 l 556 139 l 417 139 l 417 0 l 278 0 l 278 139 l 139 139 l 139 417 l 278 417 l 278 556 l 139 556 l 139 833 l 278 833 l 278 972 l 417 972 l 417 694 l 556 694 l 556 833 m 278 -139 l 556 -139 l 556 -278 l 278 -278 l 278 -139 m 556 278 l 556 556 l 417 556 l 417 278 l 556 278 m 417 1111 l 694 1111 l 694 972 l 417 972 l 417 1111 z "},"°":{"ha":972,"x_min":278,"x_max":694,"o":"m 278 694 l 278 833 l 417 833 l 417 694 l 278 694 m 417 694 l 556 694 l 556 556 l 417 556 l 417 694 m 417 972 l 556 972 l 556 833 l 417 833 l 417 972 m 556 833 l 694 833 l 694 694 l 556 694 l 556 833 z "},"|":{"ha":972,"x_min":417,"x_max":556,"o":"m 556 1111 l 556 -278 l 417 -278 l 417 1111 l 556 1111 z "},"¦":{"ha":972,"x_min":417,"x_max":556,"o":"m 417 556 l 417 1111 l 556 1111 l 556 556 l 417 556 m 417 278 l 556 278 l 556 -278 l 417 -278 l 417 278 z "},"†":{"ha":972,"x_min":278,"x_max":833,"o":"m 556 971 l 556 1111 l 694 1111 l 694 833 l 833 833 l 833 694 l 694 694 l 694 -139 l 556 -139 l 556 -278 l 417 -278 l 417 694 l 278 694 l 278 833 l 417 833 l 417 971 l 556 971 z "},"‡":{"ha":972,"x_min":278,"x_max":833,"o":"m 417 833 l 417 971 l 556 971 l 556 1111 l 694 1111 l 694 833 l 833 833 l 833 694 l 694 694 l 694 139 l 833 139 l 833 0 l 694 0 l 694 -139 l 556 -139 l 556 -278 l 417 -278 l 417 0 l 278 0 l 278 139 l 417 139 l 417 694 l 278 694 l 278 833 l 417 833 z "},"€":{"ha":972,"x_min":0,"x_max":833,"o":"m 417 694 l 694 694 l 694 556 l 556 556 l 556 417 l 417 417 l 417 0 l 556 0 l 556 -139 l 278 -139 l 278 0 l 139 0 l 139 417 l 0 417 l 0 556 l 139 556 l 139 833 l 278 833 l 278 972 l 417 972 l 417 694 m 417 1111 l 694 1111 l 694 972 l 417 972 l 417 1111 m 556 139 l 694 139 l 694 0 l 556 0 l 556 139 m 694 972 l 833 972 l 833 833 l 694 833 l 694 972 z "},"¢":{"ha":972,"x_min":139,"x_max":833,"o":"m 278 -139 l 278 0 l 139 0 l 139 556 l 278 556 l 278 694 l 417 694 l 417 0 l 556 0 l 556 694 l 417 694 l 417 833 l 556 833 l 556 972 l 694 972 l 694 694 l 833 694 l 833 556 l 694 556 l 694 139 l 833 139 l 833 0 l 694 0 l 694 -278 l 556 -278 l 556 -139 l 278 -139 z "},"$":{"ha":972,"x_min":139,"x_max":833,"o":"m 556 694 l 694 694 l 694 556 l 833 556 l 833 139 l 694 139 l 694 0 l 556 0 l 556 -139 l 417 -139 l 417 0 l 278 0 l 278 139 l 556 139 l 556 417 l 417 417 l 417 278 l 278 278 l 278 417 l 139 417 l 139 833 l 278 833 l 278 972 l 417 972 l 417 1111 l 556 1111 l 556 972 l 694 972 l 694 833 l 417 833 l 417 556 l 556 556 l 556 694 m 139 0 l 278 0 l 278 -139 l 139 -139 l 139 0 m 694 1111 l 833 1111 l 833 972 l 694 972 l 694 1111 z "},"£":{"ha":972,"x_min":0,"x_max":972,"o":"m 694 0 l 833 0 l 833 -139 l 417 -139 l 417 0 l 139 0 l 139 278 l 0 278 l 0 417 l 139 417 l 139 556 l 0 556 l 0 694 l 139 694 l 139 833 l 278 833 l 278 972 l 417 972 l 417 694 l 556 694 l 556 972 l 417 972 l 417 1111 l 694 1111 l 694 972 l 833 972 l 833 833 l 694 833 l 694 694 l 833 694 l 833 556 l 694 556 l 694 417 l 833 417 l 833 278 l 694 278 l 694 0 m 0 0 l 139 0 l 139 -139 l 0 -139 l 0 0 m 556 139 l 556 278 l 417 278 l 417 139 l 556 139 m 556 417 l 556 556 l 417 556 l 417 417 l 556 417 m 833 139 l 972 139 l 972 0 l 833 0 l 833 139 m 833 1111 l 972 1111 l 972 972 l 833 972 l 833 1111 z "},"¥":{"ha":972,"x_min":0,"x_max":833,"o":"m 0 139 l 0 278 l 278 278 l 278 417 l 0 417 l 0 556 l 139 556 l 139 833 l 0 833 l 0 972 l 139 972 l 139 1111 l 278 1111 l 278 972 l 417 972 l 417 556 l 556 556 l 556 1111 l 694 1111 l 694 972 l 833 972 l 833 694 l 694 694 l 694 556 l 833 556 l 833 417 l 556 417 l 556 278 l 833 278 l 833 139 l 556 139 l 556 0 l 417 0 l 417 -139 l 278 -139 l 278 139 l 0 139 z "},"+":{"ha":972,"x_min":139,"x_max":972,"o":"m 417 278 l 417 -139 l 556 -139 l 556 0 l 694 0 l 694 278 l 833 278 l 833 417 l 972 417 l 972 556 l 694 556 l 694 972 l 556 972 l 556 833 l 417 833 l 417 556 l 278 556 l 278 417 l 139 417 l 139 278 l 417 278 z "},"−":{"ha":972,"x_min":278,"x_max":833,"o":"m 694 278 l 694 417 l 833 417 l 833 556 l 417 556 l 417 417 l 278 417 l 278 278 l 694 278 z "},"×":{"ha":972,"x_min":139,"x_max":833,"o":"m 556 139 l 556 278 l 694 278 l 694 139 l 556 139 m 139 139 l 278 139 l 278 0 l 139 0 l 139 139 m 139 694 l 278 694 l 278 556 l 139 556 l 139 694 m 278 278 l 417 278 l 417 139 l 278 139 l 278 278 m 278 556 l 417 556 l 417 417 l 278 417 l 278 556 m 417 417 l 556 417 l 556 278 l 417 278 l 417 417 m 556 556 l 694 556 l 694 417 l 556 417 l 556 556 m 694 139 l 833 139 l 833 0 l 694 0 l 694 139 m 694 694 l 833 694 l 833 556 l 694 556 l 694 694 z "},"÷":{"ha":972,"x_min":139,"x_max":833,"o":"m 833 417 l 833 278 l 139 278 l 139 417 l 833 417 m 417 139 l 556 139 l 556 0 l 417 0 l 417 139 m 417 694 l 556 694 l 556 556 l 417 556 l 417 694 z "},"=":{"ha":972,"x_min":139,"x_max":972,"o":"m 833 0 l 833 139 l 972 139 l 972 278 l 278 278 l 278 139 l 139 139 l 139 0 l 833 0 m 833 417 l 833 556 l 972 556 l 972 694 l 278 694 l 278 556 l 139 556 l 139 417 l 833 417 z "},">":{"ha":972,"x_min":139,"x_max":833,"o":"m 417 833 l 417 694 l 556 694 l 556 556 l 694 556 l 694 417 l 833 417 l 833 278 l 694 278 l 694 139 l 556 139 l 556 278 l 417 278 l 417 417 l 278 417 l 278 556 l 139 556 l 139 694 l 278 694 l 278 833 l 417 833 m 278 0 l 417 0 l 417 -139 l 278 -139 l 278 0 m 417 139 l 556 139 l 556 0 l 417 0 l 417 139 z "},"<":{"ha":972,"x_min":139,"x_max":833,"o":"m 556 -139 l 556 0 l 417 0 l 417 139 l 278 139 l 278 278 l 139 278 l 139 417 l 278 417 l 278 556 l 417 556 l 417 417 l 556 417 l 556 278 l 694 278 l 694 139 l 833 139 l 833 0 l 694 0 l 694 -139 l 556 -139 m 417 694 l 556 694 l 556 556 l 417 556 l 417 694 m 556 833 l 694 833 l 694 694 l 556 694 l 556 833 z "},"≥":{"ha":972,"x_min":139,"x_max":972,"o":"m 278 139 l 972 139 l 972 0 l 833 0 l 833 -139 l 139 -139 l 139 0 l 278 0 l 278 139 m 139 417 l 278 417 l 278 556 l 694 556 l 694 694 l 833 694 l 833 556 l 972 556 l 972 417 l 833 417 l 833 278 l 139 278 l 139 417 m 417 972 l 556 972 l 556 833 l 417 833 l 417 972 m 556 833 l 694 833 l 694 694 l 556 694 l 556 833 z "},"≤":{"ha":972,"x_min":139,"x_max":972,"o":"m 278 139 l 972 139 l 972 0 l 833 0 l 833 -139 l 139 -139 l 139 0 l 278 0 l 278 139 m 139 417 l 278 417 l 278 556 l 417 556 l 417 694 l 556 694 l 556 556 l 972 556 l 972 417 l 833 417 l 833 278 l 139 278 l 139 417 m 556 833 l 694 833 l 694 694 l 556 694 l 556 833 m 694 972 l 833 972 l 833 833 l 694 833 l 694 972 z "},"≈":{"ha":972,"x_min":139,"x_max":972,"o":"m 278 556 l 278 694 l 694 694 l 694 556 l 833 556 l 833 417 l 417 417 l 417 556 l 278 556 m 139 139 l 278 139 l 278 0 l 139 0 l 139 139 m 139 556 l 278 556 l 278 417 l 139 417 l 139 556 m 278 278 l 694 278 l 694 139 l 833 139 l 833 0 l 417 0 l 417 139 l 278 139 l 278 278 m 833 278 l 972 278 l 972 139 l 833 139 l 833 278 m 833 694 l 972 694 l 972 556 l 833 556 l 833 694 z "},"~":{"ha":972,"x_min":139,"x_max":833,"o":"m 278 417 l 278 556 l 556 556 l 556 417 l 694 417 l 694 278 l 417 278 l 417 417 l 278 417 m 139 417 l 278 417 l 278 278 l 139 278 l 139 417 m 694 556 l 833 556 l 833 417 l 694 417 l 694 556 z "},"^":{"ha":972,"x_min":278,"x_max":694,"o":"m 417 972 l 417 1111 l 556 1111 l 556 972 l 417 972 m 278 972 l 417 972 l 417 833 l 278 833 l 278 972 m 556 972 l 694 972 l 694 833 l 556 833 l 556 972 z "},"%":{"ha":972,"x_min":0,"x_max":972,"o":"m 278 556 l 0 556 l 0 972 l 139 972 l 139 694 l 278 694 l 278 556 m 139 1111 l 417 1111 l 417 694 l 278 694 l 278 972 l 139 972 l 139 1111 m 417 -139 l 417 278 l 694 278 l 694 0 l 833 0 l 833 -139 l 556 -139 l 556 694 l 694 694 l 694 1111 l 556 1111 l 556 694 l 417 694 l 417 278 l 278 278 l 278 -139 l 417 -139 m 694 417 l 972 417 l 972 0 l 833 0 l 833 278 l 694 278 l 694 417 z "},"‰":{"ha":972,"x_min":0,"x_max":972,"o":"m 972 278 l 972 0 l 833 0 l 833 139 l 694 139 l 694 0 l 833 0 l 833 -139 l 278 -139 l 278 139 l 417 139 l 417 0 l 556 0 l 556 139 l 417 139 l 417 278 l 972 278 m 0 417 l 278 417 l 278 278 l 0 278 l 0 417 m 0 972 l 139 972 l 139 833 l 278 833 l 278 694 l 0 694 l 0 972 m 139 1111 l 417 1111 l 417 833 l 278 833 l 278 972 l 139 972 l 139 1111 m 278 556 l 694 556 l 694 417 l 278 417 l 278 556 m 694 694 l 972 694 l 972 556 l 694 556 l 694 694 z "},"¨":{"ha":972,"x_min":278,"x_max":694,"o":"m 417 833 l 278 833 l 278 972 l 417 972 l 417 833 m 556 972 l 694 972 l 694 833 l 556 833 l 556 972 z "},"`":{"ha":972,"x_min":278,"x_max":556,"o":"m 417 972 l 417 833 l 278 833 l 278 972 l 417 972 m 417 833 l 556 833 l 556 694 l 417 694 l 417 833 z "},"´":{"ha":972,"x_min":278,"x_max":556,"o":"m 417 833 l 417 694 l 278 694 l 278 833 l 417 833 m 417 972 l 556 972 l 556 833 l 417 833 l 417 972 z "},"ˆ":{"ha":972,"x_min":278,"x_max":694,"o":"m 556 694 l 556 833 l 694 833 l 694 694 l 556 694 m 278 833 l 417 833 l 417 694 l 278 694 l 278 833 m 417 972 l 556 972 l 556 833 l 417 833 l 417 972 z "},"ˇ":{"ha":972,"x_min":278,"x_max":694,"o":"m 417 694 l 417 833 l 556 833 l 556 694 l 417 694 m 278 972 l 417 972 l 417 833 l 278 833 l 278 972 m 556 972 l 694 972 l 694 833 l 556 833 l 556 972 z "},"˚":{"ha":972,"x_min":278,"x_max":694,"o":"m 278 694 l 278 833 l 417 833 l 417 694 l 278 694 m 417 694 l 556 694 l 556 556 l 417 556 l 417 694 m 417 972 l 556 972 l 556 833 l 417 833 l 417 972 m 556 833 l 694 833 l 694 694 l 556 694 l 556 833 z "},"˜":{"ha":972,"x_min":278,"x_max":833,"o":"m 417 972 l 417 1111 l 556 1111 l 556 972 l 417 972 m 278 972 l 417 972 l 417 833 l 278 833 l 278 972 m 556 972 l 694 972 l 694 833 l 556 833 l 556 972 m 694 1111 l 833 1111 l 833 972 l 694 972 l 694 1111 z "},"¸":{"ha":972,"x_min":417,"x_max":556,"o":"m 556 0 l 556 -278 l 417 -278 l 417 0 l 556 0 z "}}}
